<mxfile host="Electron" agent="Mozilla/5.0 (Windows NT 10.0; Win64; x64) AppleWebKit/537.36 (KHTML, like Gecko) draw.io/26.0.4 Chrome/128.0.6613.186 Electron/32.2.5 Safari/537.36" version="26.0.4">
  <diagram name="Page-1" id="SeEbcrkOaUqktt_m7GNb">
    <mxGraphModel dx="3267" dy="776" grid="1" gridSize="10" guides="1" tooltips="1" connect="1" arrows="1" fold="1" page="1" pageScale="1" pageWidth="1654" pageHeight="1169" math="0" shadow="0">
      <root>
        <mxCell id="0" />
        <mxCell id="1" parent="0" />
        <mxCell id="k1esWwxB7F54cW-bIOR9-1" style="edgeStyle=orthogonalEdgeStyle;rounded=0;orthogonalLoop=1;jettySize=auto;html=1;exitX=0.5;exitY=1;exitDx=0;exitDy=0;entryX=0;entryY=0.5;entryDx=0;entryDy=0;" edge="1" parent="1" source="k1esWwxB7F54cW-bIOR9-2" target="k1esWwxB7F54cW-bIOR9-167">
          <mxGeometry relative="1" as="geometry" />
        </mxCell>
        <mxCell id="k1esWwxB7F54cW-bIOR9-2" value="c_in[25]" style="text;html=1;align=center;verticalAlign=middle;whiteSpace=wrap;rounded=0;" vertex="1" parent="1">
          <mxGeometry x="40" y="20" width="50" height="20" as="geometry" />
        </mxCell>
        <mxCell id="k1esWwxB7F54cW-bIOR9-3" style="edgeStyle=orthogonalEdgeStyle;rounded=0;orthogonalLoop=1;jettySize=auto;html=1;exitX=0.5;exitY=1;exitDx=0;exitDy=0;entryX=0;entryY=0.5;entryDx=0;entryDy=0;" edge="1" parent="1" source="k1esWwxB7F54cW-bIOR9-4" target="k1esWwxB7F54cW-bIOR9-169">
          <mxGeometry relative="1" as="geometry" />
        </mxCell>
        <mxCell id="k1esWwxB7F54cW-bIOR9-4" value="c_in[24]" style="text;html=1;align=center;verticalAlign=middle;whiteSpace=wrap;rounded=0;" vertex="1" parent="1">
          <mxGeometry x="90" y="20" width="50" height="20" as="geometry" />
        </mxCell>
        <mxCell id="k1esWwxB7F54cW-bIOR9-5" style="edgeStyle=orthogonalEdgeStyle;rounded=0;orthogonalLoop=1;jettySize=auto;html=1;exitX=0.5;exitY=1;exitDx=0;exitDy=0;entryX=0;entryY=0.5;entryDx=0;entryDy=0;" edge="1" parent="1" source="k1esWwxB7F54cW-bIOR9-6" target="k1esWwxB7F54cW-bIOR9-217">
          <mxGeometry relative="1" as="geometry" />
        </mxCell>
        <mxCell id="k1esWwxB7F54cW-bIOR9-6" value="c_in[0]" style="text;html=1;align=center;verticalAlign=middle;whiteSpace=wrap;rounded=0;" vertex="1" parent="1">
          <mxGeometry x="1290" y="20" width="50" height="20" as="geometry" />
        </mxCell>
        <mxCell id="k1esWwxB7F54cW-bIOR9-7" style="edgeStyle=orthogonalEdgeStyle;rounded=0;orthogonalLoop=1;jettySize=auto;html=1;exitX=0.5;exitY=1;exitDx=0;exitDy=0;entryX=0;entryY=0.5;entryDx=0;entryDy=0;" edge="1" parent="1" source="k1esWwxB7F54cW-bIOR9-8" target="k1esWwxB7F54cW-bIOR9-219">
          <mxGeometry relative="1" as="geometry" />
        </mxCell>
        <mxCell id="k1esWwxB7F54cW-bIOR9-8" value="c_in[26]" style="text;html=1;align=center;verticalAlign=middle;whiteSpace=wrap;rounded=0;" vertex="1" parent="1">
          <mxGeometry x="-10" y="20" width="50" height="20" as="geometry" />
        </mxCell>
        <mxCell id="k1esWwxB7F54cW-bIOR9-9" style="edgeStyle=orthogonalEdgeStyle;rounded=0;orthogonalLoop=1;jettySize=auto;html=1;exitX=0.5;exitY=1;exitDx=0;exitDy=0;entryX=0;entryY=0.5;entryDx=0;entryDy=0;" edge="1" parent="1" source="k1esWwxB7F54cW-bIOR9-10" target="k1esWwxB7F54cW-bIOR9-215">
          <mxGeometry relative="1" as="geometry" />
        </mxCell>
        <mxCell id="k1esWwxB7F54cW-bIOR9-10" value="c_in[1]" style="text;html=1;align=center;verticalAlign=middle;whiteSpace=wrap;rounded=0;" vertex="1" parent="1">
          <mxGeometry x="1240" y="20" width="50" height="20" as="geometry" />
        </mxCell>
        <mxCell id="k1esWwxB7F54cW-bIOR9-11" style="edgeStyle=orthogonalEdgeStyle;rounded=0;orthogonalLoop=1;jettySize=auto;html=1;exitX=0.5;exitY=1;exitDx=0;exitDy=0;entryX=0;entryY=0.5;entryDx=0;entryDy=0;" edge="1" parent="1" source="k1esWwxB7F54cW-bIOR9-12" target="k1esWwxB7F54cW-bIOR9-209">
          <mxGeometry relative="1" as="geometry" />
        </mxCell>
        <mxCell id="k1esWwxB7F54cW-bIOR9-12" value="c_in[2]" style="text;html=1;align=center;verticalAlign=middle;whiteSpace=wrap;rounded=0;" vertex="1" parent="1">
          <mxGeometry x="1190" y="20" width="50" height="20" as="geometry" />
        </mxCell>
        <mxCell id="k1esWwxB7F54cW-bIOR9-13" style="edgeStyle=orthogonalEdgeStyle;rounded=0;orthogonalLoop=1;jettySize=auto;html=1;exitX=0.5;exitY=1;exitDx=0;exitDy=0;entryX=0;entryY=0.5;entryDx=0;entryDy=0;" edge="1" parent="1" source="k1esWwxB7F54cW-bIOR9-14" target="k1esWwxB7F54cW-bIOR9-211">
          <mxGeometry relative="1" as="geometry" />
        </mxCell>
        <mxCell id="k1esWwxB7F54cW-bIOR9-14" value="c_in[3]" style="text;html=1;align=center;verticalAlign=middle;whiteSpace=wrap;rounded=0;" vertex="1" parent="1">
          <mxGeometry x="1140" y="20" width="50" height="20" as="geometry" />
        </mxCell>
        <mxCell id="k1esWwxB7F54cW-bIOR9-15" style="edgeStyle=orthogonalEdgeStyle;rounded=0;orthogonalLoop=1;jettySize=auto;html=1;exitX=0.5;exitY=1;exitDx=0;exitDy=0;entryX=0;entryY=0.5;entryDx=0;entryDy=0;" edge="1" parent="1" source="k1esWwxB7F54cW-bIOR9-16" target="k1esWwxB7F54cW-bIOR9-213">
          <mxGeometry relative="1" as="geometry" />
        </mxCell>
        <mxCell id="k1esWwxB7F54cW-bIOR9-16" value="c_in[4]" style="text;html=1;align=center;verticalAlign=middle;whiteSpace=wrap;rounded=0;" vertex="1" parent="1">
          <mxGeometry x="1090" y="20" width="50" height="20" as="geometry" />
        </mxCell>
        <mxCell id="k1esWwxB7F54cW-bIOR9-17" style="edgeStyle=orthogonalEdgeStyle;rounded=0;orthogonalLoop=1;jettySize=auto;html=1;exitX=0.5;exitY=1;exitDx=0;exitDy=0;entryX=0;entryY=0.5;entryDx=0;entryDy=0;" edge="1" parent="1" source="k1esWwxB7F54cW-bIOR9-18" target="k1esWwxB7F54cW-bIOR9-203">
          <mxGeometry relative="1" as="geometry" />
        </mxCell>
        <mxCell id="k1esWwxB7F54cW-bIOR9-18" value="c_in[5]" style="text;html=1;align=center;verticalAlign=middle;whiteSpace=wrap;rounded=0;" vertex="1" parent="1">
          <mxGeometry x="1040" y="20" width="50" height="20" as="geometry" />
        </mxCell>
        <mxCell id="k1esWwxB7F54cW-bIOR9-19" style="edgeStyle=orthogonalEdgeStyle;rounded=0;orthogonalLoop=1;jettySize=auto;html=1;exitX=0.5;exitY=1;exitDx=0;exitDy=0;entryX=0;entryY=0.5;entryDx=0;entryDy=0;" edge="1" parent="1" source="k1esWwxB7F54cW-bIOR9-20" target="k1esWwxB7F54cW-bIOR9-205">
          <mxGeometry relative="1" as="geometry" />
        </mxCell>
        <mxCell id="k1esWwxB7F54cW-bIOR9-20" value="c_in[6]" style="text;html=1;align=center;verticalAlign=middle;whiteSpace=wrap;rounded=0;" vertex="1" parent="1">
          <mxGeometry x="990" y="20" width="50" height="20" as="geometry" />
        </mxCell>
        <mxCell id="k1esWwxB7F54cW-bIOR9-21" style="edgeStyle=orthogonalEdgeStyle;rounded=0;orthogonalLoop=1;jettySize=auto;html=1;exitX=0.5;exitY=1;exitDx=0;exitDy=0;entryX=0;entryY=0.5;entryDx=0;entryDy=0;" edge="1" parent="1" source="k1esWwxB7F54cW-bIOR9-22" target="k1esWwxB7F54cW-bIOR9-207">
          <mxGeometry relative="1" as="geometry" />
        </mxCell>
        <mxCell id="k1esWwxB7F54cW-bIOR9-22" value="c_in[7]" style="text;html=1;align=center;verticalAlign=middle;whiteSpace=wrap;rounded=0;" vertex="1" parent="1">
          <mxGeometry x="940" y="20" width="50" height="20" as="geometry" />
        </mxCell>
        <mxCell id="k1esWwxB7F54cW-bIOR9-23" style="edgeStyle=orthogonalEdgeStyle;rounded=0;orthogonalLoop=1;jettySize=auto;html=1;exitX=0.5;exitY=1;exitDx=0;exitDy=0;entryX=0;entryY=0.5;entryDx=0;entryDy=0;" edge="1" parent="1" source="k1esWwxB7F54cW-bIOR9-24" target="k1esWwxB7F54cW-bIOR9-199">
          <mxGeometry relative="1" as="geometry" />
        </mxCell>
        <mxCell id="k1esWwxB7F54cW-bIOR9-24" value="c_in[8]" style="text;html=1;align=center;verticalAlign=middle;whiteSpace=wrap;rounded=0;" vertex="1" parent="1">
          <mxGeometry x="890" y="20" width="50" height="20" as="geometry" />
        </mxCell>
        <mxCell id="k1esWwxB7F54cW-bIOR9-25" style="edgeStyle=orthogonalEdgeStyle;rounded=0;orthogonalLoop=1;jettySize=auto;html=1;exitX=0.5;exitY=1;exitDx=0;exitDy=0;entryX=0;entryY=0.5;entryDx=0;entryDy=0;" edge="1" parent="1" source="k1esWwxB7F54cW-bIOR9-26" target="k1esWwxB7F54cW-bIOR9-197">
          <mxGeometry relative="1" as="geometry" />
        </mxCell>
        <mxCell id="k1esWwxB7F54cW-bIOR9-26" value="c_in[9]" style="text;html=1;align=center;verticalAlign=middle;whiteSpace=wrap;rounded=0;" vertex="1" parent="1">
          <mxGeometry x="840" y="20" width="50" height="20" as="geometry" />
        </mxCell>
        <mxCell id="k1esWwxB7F54cW-bIOR9-27" style="edgeStyle=orthogonalEdgeStyle;rounded=0;orthogonalLoop=1;jettySize=auto;html=1;exitX=0.5;exitY=1;exitDx=0;exitDy=0;entryX=0;entryY=0.5;entryDx=0;entryDy=0;" edge="1" parent="1" source="k1esWwxB7F54cW-bIOR9-28" target="k1esWwxB7F54cW-bIOR9-195">
          <mxGeometry relative="1" as="geometry" />
        </mxCell>
        <mxCell id="k1esWwxB7F54cW-bIOR9-28" value="c_in[10]" style="text;html=1;align=center;verticalAlign=middle;whiteSpace=wrap;rounded=0;" vertex="1" parent="1">
          <mxGeometry x="790" y="20" width="50" height="20" as="geometry" />
        </mxCell>
        <mxCell id="k1esWwxB7F54cW-bIOR9-29" style="edgeStyle=orthogonalEdgeStyle;rounded=0;orthogonalLoop=1;jettySize=auto;html=1;exitX=0.5;exitY=1;exitDx=0;exitDy=0;entryX=0;entryY=0.5;entryDx=0;entryDy=0;" edge="1" parent="1" source="k1esWwxB7F54cW-bIOR9-30" target="k1esWwxB7F54cW-bIOR9-201">
          <mxGeometry relative="1" as="geometry" />
        </mxCell>
        <mxCell id="k1esWwxB7F54cW-bIOR9-30" value="c_in[11]" style="text;html=1;align=center;verticalAlign=middle;whiteSpace=wrap;rounded=0;" vertex="1" parent="1">
          <mxGeometry x="740" y="20" width="50" height="20" as="geometry" />
        </mxCell>
        <mxCell id="k1esWwxB7F54cW-bIOR9-31" style="edgeStyle=orthogonalEdgeStyle;rounded=0;orthogonalLoop=1;jettySize=auto;html=1;exitX=0.5;exitY=1;exitDx=0;exitDy=0;entryX=0;entryY=0.5;entryDx=0;entryDy=0;" edge="1" parent="1" source="k1esWwxB7F54cW-bIOR9-32" target="k1esWwxB7F54cW-bIOR9-193">
          <mxGeometry relative="1" as="geometry" />
        </mxCell>
        <mxCell id="k1esWwxB7F54cW-bIOR9-32" value="c_in[12]" style="text;html=1;align=center;verticalAlign=middle;whiteSpace=wrap;rounded=0;" vertex="1" parent="1">
          <mxGeometry x="690" y="20" width="50" height="20" as="geometry" />
        </mxCell>
        <mxCell id="k1esWwxB7F54cW-bIOR9-33" style="edgeStyle=orthogonalEdgeStyle;rounded=0;orthogonalLoop=1;jettySize=auto;html=1;exitX=0.5;exitY=1;exitDx=0;exitDy=0;entryX=0;entryY=0.5;entryDx=0;entryDy=0;" edge="1" parent="1" source="k1esWwxB7F54cW-bIOR9-34" target="k1esWwxB7F54cW-bIOR9-191">
          <mxGeometry relative="1" as="geometry" />
        </mxCell>
        <mxCell id="k1esWwxB7F54cW-bIOR9-34" value="c_in[13]" style="text;html=1;align=center;verticalAlign=middle;whiteSpace=wrap;rounded=0;" vertex="1" parent="1">
          <mxGeometry x="640" y="20" width="50" height="20" as="geometry" />
        </mxCell>
        <mxCell id="k1esWwxB7F54cW-bIOR9-35" style="edgeStyle=orthogonalEdgeStyle;rounded=0;orthogonalLoop=1;jettySize=auto;html=1;exitX=0.5;exitY=1;exitDx=0;exitDy=0;entryX=0;entryY=0.5;entryDx=0;entryDy=0;" edge="1" parent="1" source="k1esWwxB7F54cW-bIOR9-36" target="k1esWwxB7F54cW-bIOR9-189">
          <mxGeometry relative="1" as="geometry" />
        </mxCell>
        <mxCell id="k1esWwxB7F54cW-bIOR9-36" value="c_in[14]" style="text;html=1;align=center;verticalAlign=middle;whiteSpace=wrap;rounded=0;" vertex="1" parent="1">
          <mxGeometry x="590" y="20" width="50" height="20" as="geometry" />
        </mxCell>
        <mxCell id="k1esWwxB7F54cW-bIOR9-37" style="edgeStyle=orthogonalEdgeStyle;rounded=0;orthogonalLoop=1;jettySize=auto;html=1;exitX=0.5;exitY=1;exitDx=0;exitDy=0;entryX=0;entryY=0.5;entryDx=0;entryDy=0;" edge="1" parent="1" source="k1esWwxB7F54cW-bIOR9-38" target="k1esWwxB7F54cW-bIOR9-187">
          <mxGeometry relative="1" as="geometry" />
        </mxCell>
        <mxCell id="k1esWwxB7F54cW-bIOR9-38" value="c_in[15]" style="text;html=1;align=center;verticalAlign=middle;whiteSpace=wrap;rounded=0;" vertex="1" parent="1">
          <mxGeometry x="540" y="20" width="50" height="20" as="geometry" />
        </mxCell>
        <mxCell id="k1esWwxB7F54cW-bIOR9-39" style="edgeStyle=orthogonalEdgeStyle;rounded=0;orthogonalLoop=1;jettySize=auto;html=1;exitX=0.5;exitY=1;exitDx=0;exitDy=0;entryX=0;entryY=0.5;entryDx=0;entryDy=0;" edge="1" parent="1" source="k1esWwxB7F54cW-bIOR9-40" target="k1esWwxB7F54cW-bIOR9-185">
          <mxGeometry relative="1" as="geometry" />
        </mxCell>
        <mxCell id="k1esWwxB7F54cW-bIOR9-40" value="c_in[16]" style="text;html=1;align=center;verticalAlign=middle;whiteSpace=wrap;rounded=0;" vertex="1" parent="1">
          <mxGeometry x="490" y="20" width="50" height="20" as="geometry" />
        </mxCell>
        <mxCell id="k1esWwxB7F54cW-bIOR9-41" style="edgeStyle=orthogonalEdgeStyle;rounded=0;orthogonalLoop=1;jettySize=auto;html=1;exitX=0.5;exitY=1;exitDx=0;exitDy=0;entryX=0;entryY=0.5;entryDx=0;entryDy=0;" edge="1" parent="1" source="k1esWwxB7F54cW-bIOR9-42" target="k1esWwxB7F54cW-bIOR9-183">
          <mxGeometry relative="1" as="geometry" />
        </mxCell>
        <mxCell id="k1esWwxB7F54cW-bIOR9-42" value="c_in[17]" style="text;html=1;align=center;verticalAlign=middle;whiteSpace=wrap;rounded=0;" vertex="1" parent="1">
          <mxGeometry x="440" y="20" width="50" height="20" as="geometry" />
        </mxCell>
        <mxCell id="k1esWwxB7F54cW-bIOR9-43" style="edgeStyle=orthogonalEdgeStyle;rounded=0;orthogonalLoop=1;jettySize=auto;html=1;exitX=0.5;exitY=1;exitDx=0;exitDy=0;entryX=0;entryY=0.5;entryDx=0;entryDy=0;" edge="1" parent="1" source="k1esWwxB7F54cW-bIOR9-44" target="k1esWwxB7F54cW-bIOR9-181">
          <mxGeometry relative="1" as="geometry" />
        </mxCell>
        <mxCell id="k1esWwxB7F54cW-bIOR9-44" value="c_in[18]" style="text;html=1;align=center;verticalAlign=middle;whiteSpace=wrap;rounded=0;" vertex="1" parent="1">
          <mxGeometry x="390" y="20" width="50" height="20" as="geometry" />
        </mxCell>
        <mxCell id="k1esWwxB7F54cW-bIOR9-45" style="edgeStyle=orthogonalEdgeStyle;rounded=0;orthogonalLoop=1;jettySize=auto;html=1;exitX=0.5;exitY=1;exitDx=0;exitDy=0;entryX=0;entryY=0.5;entryDx=0;entryDy=0;" edge="1" parent="1" source="k1esWwxB7F54cW-bIOR9-46" target="k1esWwxB7F54cW-bIOR9-179">
          <mxGeometry relative="1" as="geometry" />
        </mxCell>
        <mxCell id="k1esWwxB7F54cW-bIOR9-46" value="c_in[19]" style="text;html=1;align=center;verticalAlign=middle;whiteSpace=wrap;rounded=0;" vertex="1" parent="1">
          <mxGeometry x="340" y="20" width="50" height="20" as="geometry" />
        </mxCell>
        <mxCell id="k1esWwxB7F54cW-bIOR9-47" style="edgeStyle=orthogonalEdgeStyle;rounded=0;orthogonalLoop=1;jettySize=auto;html=1;exitX=0.5;exitY=1;exitDx=0;exitDy=0;entryX=0;entryY=0.5;entryDx=0;entryDy=0;" edge="1" parent="1" source="k1esWwxB7F54cW-bIOR9-48" target="k1esWwxB7F54cW-bIOR9-177">
          <mxGeometry relative="1" as="geometry" />
        </mxCell>
        <mxCell id="k1esWwxB7F54cW-bIOR9-48" value="c_in[20]" style="text;html=1;align=center;verticalAlign=middle;whiteSpace=wrap;rounded=0;" vertex="1" parent="1">
          <mxGeometry x="290" y="20" width="50" height="20" as="geometry" />
        </mxCell>
        <mxCell id="k1esWwxB7F54cW-bIOR9-49" style="edgeStyle=orthogonalEdgeStyle;rounded=0;orthogonalLoop=1;jettySize=auto;html=1;exitX=0.5;exitY=1;exitDx=0;exitDy=0;entryX=0;entryY=0.5;entryDx=0;entryDy=0;" edge="1" parent="1" source="k1esWwxB7F54cW-bIOR9-50" target="k1esWwxB7F54cW-bIOR9-175">
          <mxGeometry relative="1" as="geometry" />
        </mxCell>
        <mxCell id="k1esWwxB7F54cW-bIOR9-50" value="c_in[21]" style="text;html=1;align=center;verticalAlign=middle;whiteSpace=wrap;rounded=0;" vertex="1" parent="1">
          <mxGeometry x="240" y="20" width="50" height="20" as="geometry" />
        </mxCell>
        <mxCell id="k1esWwxB7F54cW-bIOR9-51" style="edgeStyle=orthogonalEdgeStyle;rounded=0;orthogonalLoop=1;jettySize=auto;html=1;exitX=0.5;exitY=1;exitDx=0;exitDy=0;entryX=0;entryY=0.5;entryDx=0;entryDy=0;" edge="1" parent="1" source="k1esWwxB7F54cW-bIOR9-52" target="k1esWwxB7F54cW-bIOR9-173">
          <mxGeometry relative="1" as="geometry" />
        </mxCell>
        <mxCell id="k1esWwxB7F54cW-bIOR9-52" value="c_in[22]" style="text;html=1;align=center;verticalAlign=middle;whiteSpace=wrap;rounded=0;" vertex="1" parent="1">
          <mxGeometry x="190" y="20" width="50" height="20" as="geometry" />
        </mxCell>
        <mxCell id="k1esWwxB7F54cW-bIOR9-53" style="edgeStyle=orthogonalEdgeStyle;rounded=0;orthogonalLoop=1;jettySize=auto;html=1;exitX=0.5;exitY=1;exitDx=0;exitDy=0;entryX=0;entryY=0.5;entryDx=0;entryDy=0;" edge="1" parent="1" source="k1esWwxB7F54cW-bIOR9-54" target="k1esWwxB7F54cW-bIOR9-171">
          <mxGeometry relative="1" as="geometry" />
        </mxCell>
        <mxCell id="k1esWwxB7F54cW-bIOR9-54" value="c_in[23]" style="text;html=1;align=center;verticalAlign=middle;whiteSpace=wrap;rounded=0;" vertex="1" parent="1">
          <mxGeometry x="140" y="20" width="50" height="20" as="geometry" />
        </mxCell>
        <mxCell id="k1esWwxB7F54cW-bIOR9-55" value="c_shift[27]" style="text;html=1;align=center;verticalAlign=middle;whiteSpace=wrap;rounded=0;" vertex="1" parent="1">
          <mxGeometry x="1370" y="90" width="60" height="30" as="geometry" />
        </mxCell>
        <mxCell id="k1esWwxB7F54cW-bIOR9-56" value="c_shift[26]" style="text;html=1;align=center;verticalAlign=middle;whiteSpace=wrap;rounded=0;" vertex="1" parent="1">
          <mxGeometry x="1370" y="110" width="60" height="30" as="geometry" />
        </mxCell>
        <mxCell id="k1esWwxB7F54cW-bIOR9-57" value="c_shift[25]" style="text;html=1;align=center;verticalAlign=middle;whiteSpace=wrap;rounded=0;" vertex="1" parent="1">
          <mxGeometry x="1370" y="130" width="60" height="30" as="geometry" />
        </mxCell>
        <mxCell id="k1esWwxB7F54cW-bIOR9-58" value="c_shift[24]" style="text;html=1;align=center;verticalAlign=middle;whiteSpace=wrap;rounded=0;" vertex="1" parent="1">
          <mxGeometry x="1370" y="150" width="60" height="30" as="geometry" />
        </mxCell>
        <mxCell id="k1esWwxB7F54cW-bIOR9-59" value="c_shift[20]" style="text;html=1;align=center;verticalAlign=middle;whiteSpace=wrap;rounded=0;" vertex="1" parent="1">
          <mxGeometry x="1370" y="230" width="60" height="30" as="geometry" />
        </mxCell>
        <mxCell id="k1esWwxB7F54cW-bIOR9-60" value="c_shift[23]" style="text;html=1;align=center;verticalAlign=middle;whiteSpace=wrap;rounded=0;" vertex="1" parent="1">
          <mxGeometry x="1370" y="170" width="60" height="30" as="geometry" />
        </mxCell>
        <mxCell id="k1esWwxB7F54cW-bIOR9-61" value="c_shift[21]" style="text;html=1;align=center;verticalAlign=middle;whiteSpace=wrap;rounded=0;" vertex="1" parent="1">
          <mxGeometry x="1370" y="210" width="60" height="30" as="geometry" />
        </mxCell>
        <mxCell id="k1esWwxB7F54cW-bIOR9-62" value="c_shift[22]" style="text;html=1;align=center;verticalAlign=middle;whiteSpace=wrap;rounded=0;" vertex="1" parent="1">
          <mxGeometry x="1370" y="190" width="60" height="30" as="geometry" />
        </mxCell>
        <mxCell id="k1esWwxB7F54cW-bIOR9-63" value="c_shift[16]" style="text;html=1;align=center;verticalAlign=middle;whiteSpace=wrap;rounded=0;" vertex="1" parent="1">
          <mxGeometry x="1370" y="310" width="60" height="30" as="geometry" />
        </mxCell>
        <mxCell id="k1esWwxB7F54cW-bIOR9-64" value="c_shift[18]" style="text;html=1;align=center;verticalAlign=middle;whiteSpace=wrap;rounded=0;" vertex="1" parent="1">
          <mxGeometry x="1370" y="270" width="60" height="30" as="geometry" />
        </mxCell>
        <mxCell id="k1esWwxB7F54cW-bIOR9-65" value="c_shift[17]" style="text;html=1;align=center;verticalAlign=middle;whiteSpace=wrap;rounded=0;" vertex="1" parent="1">
          <mxGeometry x="1370" y="290" width="60" height="30" as="geometry" />
        </mxCell>
        <mxCell id="k1esWwxB7F54cW-bIOR9-66" value="c_shift[14]" style="text;html=1;align=center;verticalAlign=middle;whiteSpace=wrap;rounded=0;" vertex="1" parent="1">
          <mxGeometry x="1370" y="350" width="60" height="30" as="geometry" />
        </mxCell>
        <mxCell id="k1esWwxB7F54cW-bIOR9-67" value="c_shift[15]" style="text;html=1;align=center;verticalAlign=middle;whiteSpace=wrap;rounded=0;" vertex="1" parent="1">
          <mxGeometry x="1370" y="330" width="60" height="30" as="geometry" />
        </mxCell>
        <mxCell id="k1esWwxB7F54cW-bIOR9-68" value="c_shift[13]" style="text;html=1;align=center;verticalAlign=middle;whiteSpace=wrap;rounded=0;" vertex="1" parent="1">
          <mxGeometry x="1370" y="370" width="60" height="30" as="geometry" />
        </mxCell>
        <mxCell id="k1esWwxB7F54cW-bIOR9-69" value="c_shift[10]" style="text;html=1;align=center;verticalAlign=middle;whiteSpace=wrap;rounded=0;" vertex="1" parent="1">
          <mxGeometry x="1370" y="430" width="60" height="30" as="geometry" />
        </mxCell>
        <mxCell id="k1esWwxB7F54cW-bIOR9-70" value="c_shift[11]" style="text;html=1;align=center;verticalAlign=middle;whiteSpace=wrap;rounded=0;" vertex="1" parent="1">
          <mxGeometry x="1370" y="410" width="60" height="30" as="geometry" />
        </mxCell>
        <mxCell id="k1esWwxB7F54cW-bIOR9-71" value="c_shift[12]" style="text;html=1;align=center;verticalAlign=middle;whiteSpace=wrap;rounded=0;" vertex="1" parent="1">
          <mxGeometry x="1370" y="390" width="60" height="30" as="geometry" />
        </mxCell>
        <mxCell id="k1esWwxB7F54cW-bIOR9-72" value="c_shift[8]" style="text;html=1;align=center;verticalAlign=middle;whiteSpace=wrap;rounded=0;" vertex="1" parent="1">
          <mxGeometry x="1370" y="470" width="60" height="30" as="geometry" />
        </mxCell>
        <mxCell id="k1esWwxB7F54cW-bIOR9-73" value="c_shift[9]" style="text;html=1;align=center;verticalAlign=middle;whiteSpace=wrap;rounded=0;" vertex="1" parent="1">
          <mxGeometry x="1370" y="450" width="60" height="30" as="geometry" />
        </mxCell>
        <mxCell id="k1esWwxB7F54cW-bIOR9-74" value="c_shift[3]" style="text;html=1;align=center;verticalAlign=middle;whiteSpace=wrap;rounded=0;" vertex="1" parent="1">
          <mxGeometry x="1370" y="570" width="60" height="30" as="geometry" />
        </mxCell>
        <mxCell id="k1esWwxB7F54cW-bIOR9-75" value="c_shift[1]" style="text;html=1;align=center;verticalAlign=middle;whiteSpace=wrap;rounded=0;" vertex="1" parent="1">
          <mxGeometry x="1370" y="610" width="60" height="30" as="geometry" />
        </mxCell>
        <mxCell id="k1esWwxB7F54cW-bIOR9-76" value="c_shift[2]" style="text;html=1;align=center;verticalAlign=middle;whiteSpace=wrap;rounded=0;" vertex="1" parent="1">
          <mxGeometry x="1370" y="590" width="60" height="30" as="geometry" />
        </mxCell>
        <mxCell id="k1esWwxB7F54cW-bIOR9-77" value="c_shift[0]" style="text;html=1;align=center;verticalAlign=middle;whiteSpace=wrap;rounded=0;" vertex="1" parent="1">
          <mxGeometry x="1370" y="630" width="60" height="30" as="geometry" />
        </mxCell>
        <mxCell id="k1esWwxB7F54cW-bIOR9-78" value="c_shift[4]" style="text;html=1;align=center;verticalAlign=middle;whiteSpace=wrap;rounded=0;" vertex="1" parent="1">
          <mxGeometry x="1370" y="550" width="60" height="30" as="geometry" />
        </mxCell>
        <mxCell id="k1esWwxB7F54cW-bIOR9-79" value="c_shift[5]" style="text;html=1;align=center;verticalAlign=middle;whiteSpace=wrap;rounded=0;" vertex="1" parent="1">
          <mxGeometry x="1370" y="530" width="60" height="30" as="geometry" />
        </mxCell>
        <mxCell id="k1esWwxB7F54cW-bIOR9-80" value="c_shift[6]" style="text;html=1;align=center;verticalAlign=middle;whiteSpace=wrap;rounded=0;" vertex="1" parent="1">
          <mxGeometry x="1370" y="510" width="60" height="30" as="geometry" />
        </mxCell>
        <mxCell id="k1esWwxB7F54cW-bIOR9-81" value="c_shift[7]" style="text;html=1;align=center;verticalAlign=middle;whiteSpace=wrap;rounded=0;" vertex="1" parent="1">
          <mxGeometry x="1370" y="490" width="60" height="30" as="geometry" />
        </mxCell>
        <mxCell id="k1esWwxB7F54cW-bIOR9-82" value="c_shift[19]" style="text;html=1;align=center;verticalAlign=middle;whiteSpace=wrap;rounded=0;" vertex="1" parent="1">
          <mxGeometry x="1370" y="250" width="60" height="30" as="geometry" />
        </mxCell>
        <mxCell id="k1esWwxB7F54cW-bIOR9-83" style="edgeStyle=orthogonalEdgeStyle;rounded=0;orthogonalLoop=1;jettySize=auto;html=1;exitX=0.5;exitY=0;exitDx=0;exitDy=0;entryX=0;entryY=0.5;entryDx=0;entryDy=0;" edge="1" parent="1" source="k1esWwxB7F54cW-bIOR9-84" target="k1esWwxB7F54cW-bIOR9-223">
          <mxGeometry relative="1" as="geometry" />
        </mxCell>
        <mxCell id="k1esWwxB7F54cW-bIOR9-84" value="d_in[25]" style="text;html=1;align=center;verticalAlign=middle;whiteSpace=wrap;rounded=0;" vertex="1" parent="1">
          <mxGeometry x="-20" y="700" width="50" height="20" as="geometry" />
        </mxCell>
        <mxCell id="k1esWwxB7F54cW-bIOR9-85" style="edgeStyle=orthogonalEdgeStyle;rounded=0;orthogonalLoop=1;jettySize=auto;html=1;exitX=0.5;exitY=0;exitDx=0;exitDy=0;entryX=0;entryY=0.5;entryDx=0;entryDy=0;" edge="1" parent="1" source="k1esWwxB7F54cW-bIOR9-86" target="k1esWwxB7F54cW-bIOR9-225">
          <mxGeometry relative="1" as="geometry" />
        </mxCell>
        <mxCell id="k1esWwxB7F54cW-bIOR9-86" value="d_in[24]" style="text;html=1;align=center;verticalAlign=middle;whiteSpace=wrap;rounded=0;" vertex="1" parent="1">
          <mxGeometry x="30" y="700" width="50" height="20" as="geometry" />
        </mxCell>
        <mxCell id="k1esWwxB7F54cW-bIOR9-87" style="edgeStyle=orthogonalEdgeStyle;rounded=0;orthogonalLoop=1;jettySize=auto;html=1;exitX=0.5;exitY=0;exitDx=0;exitDy=0;entryX=0;entryY=0.5;entryDx=0;entryDy=0;" edge="1" parent="1" source="k1esWwxB7F54cW-bIOR9-88" target="k1esWwxB7F54cW-bIOR9-273">
          <mxGeometry relative="1" as="geometry" />
        </mxCell>
        <mxCell id="k1esWwxB7F54cW-bIOR9-88" value="d_in[0]" style="text;html=1;align=center;verticalAlign=middle;whiteSpace=wrap;rounded=0;" vertex="1" parent="1">
          <mxGeometry x="1230" y="700" width="50" height="20" as="geometry" />
        </mxCell>
        <mxCell id="k1esWwxB7F54cW-bIOR9-89" style="edgeStyle=orthogonalEdgeStyle;rounded=0;orthogonalLoop=1;jettySize=auto;html=1;exitX=0.5;exitY=0;exitDx=0;exitDy=0;entryX=0;entryY=0.5;entryDx=0;entryDy=0;" edge="1" parent="1" source="k1esWwxB7F54cW-bIOR9-90" target="k1esWwxB7F54cW-bIOR9-221">
          <mxGeometry relative="1" as="geometry" />
        </mxCell>
        <mxCell id="k1esWwxB7F54cW-bIOR9-90" value="d_in[26]" style="text;html=1;align=center;verticalAlign=middle;whiteSpace=wrap;rounded=0;" vertex="1" parent="1">
          <mxGeometry x="-70" y="700" width="50" height="20" as="geometry" />
        </mxCell>
        <mxCell id="k1esWwxB7F54cW-bIOR9-91" style="edgeStyle=orthogonalEdgeStyle;rounded=0;orthogonalLoop=1;jettySize=auto;html=1;exitX=0.5;exitY=0;exitDx=0;exitDy=0;entryX=0;entryY=0.5;entryDx=0;entryDy=0;" edge="1" parent="1" source="k1esWwxB7F54cW-bIOR9-92" target="k1esWwxB7F54cW-bIOR9-271">
          <mxGeometry relative="1" as="geometry" />
        </mxCell>
        <mxCell id="k1esWwxB7F54cW-bIOR9-92" value="d_in[1]" style="text;html=1;align=center;verticalAlign=middle;whiteSpace=wrap;rounded=0;" vertex="1" parent="1">
          <mxGeometry x="1180" y="700" width="50" height="20" as="geometry" />
        </mxCell>
        <mxCell id="k1esWwxB7F54cW-bIOR9-93" style="edgeStyle=orthogonalEdgeStyle;rounded=0;orthogonalLoop=1;jettySize=auto;html=1;exitX=0.5;exitY=0;exitDx=0;exitDy=0;entryX=0;entryY=0.5;entryDx=0;entryDy=0;" edge="1" parent="1" source="k1esWwxB7F54cW-bIOR9-94" target="k1esWwxB7F54cW-bIOR9-265">
          <mxGeometry relative="1" as="geometry" />
        </mxCell>
        <mxCell id="k1esWwxB7F54cW-bIOR9-94" value="d_in[2]" style="text;html=1;align=center;verticalAlign=middle;whiteSpace=wrap;rounded=0;" vertex="1" parent="1">
          <mxGeometry x="1130" y="700" width="50" height="20" as="geometry" />
        </mxCell>
        <mxCell id="k1esWwxB7F54cW-bIOR9-95" style="edgeStyle=orthogonalEdgeStyle;rounded=0;orthogonalLoop=1;jettySize=auto;html=1;exitX=0.5;exitY=0;exitDx=0;exitDy=0;entryX=0;entryY=0.5;entryDx=0;entryDy=0;" edge="1" parent="1" source="k1esWwxB7F54cW-bIOR9-96" target="k1esWwxB7F54cW-bIOR9-267">
          <mxGeometry relative="1" as="geometry" />
        </mxCell>
        <mxCell id="k1esWwxB7F54cW-bIOR9-96" value="d_in[3]" style="text;html=1;align=center;verticalAlign=middle;whiteSpace=wrap;rounded=0;" vertex="1" parent="1">
          <mxGeometry x="1080" y="700" width="50" height="20" as="geometry" />
        </mxCell>
        <mxCell id="k1esWwxB7F54cW-bIOR9-97" style="edgeStyle=orthogonalEdgeStyle;rounded=0;orthogonalLoop=1;jettySize=auto;html=1;exitX=0.5;exitY=0;exitDx=0;exitDy=0;entryX=0;entryY=0.5;entryDx=0;entryDy=0;" edge="1" parent="1" source="k1esWwxB7F54cW-bIOR9-98" target="k1esWwxB7F54cW-bIOR9-269">
          <mxGeometry relative="1" as="geometry" />
        </mxCell>
        <mxCell id="k1esWwxB7F54cW-bIOR9-98" value="d_in[4]" style="text;html=1;align=center;verticalAlign=middle;whiteSpace=wrap;rounded=0;" vertex="1" parent="1">
          <mxGeometry x="1030" y="700" width="50" height="20" as="geometry" />
        </mxCell>
        <mxCell id="k1esWwxB7F54cW-bIOR9-99" style="edgeStyle=orthogonalEdgeStyle;rounded=0;orthogonalLoop=1;jettySize=auto;html=1;exitX=0.5;exitY=0;exitDx=0;exitDy=0;entryX=0;entryY=0.5;entryDx=0;entryDy=0;" edge="1" parent="1" source="k1esWwxB7F54cW-bIOR9-100" target="k1esWwxB7F54cW-bIOR9-259">
          <mxGeometry relative="1" as="geometry" />
        </mxCell>
        <mxCell id="k1esWwxB7F54cW-bIOR9-100" value="d_in[5]" style="text;html=1;align=center;verticalAlign=middle;whiteSpace=wrap;rounded=0;" vertex="1" parent="1">
          <mxGeometry x="980" y="700" width="50" height="20" as="geometry" />
        </mxCell>
        <mxCell id="k1esWwxB7F54cW-bIOR9-101" style="edgeStyle=orthogonalEdgeStyle;rounded=0;orthogonalLoop=1;jettySize=auto;html=1;exitX=0.5;exitY=0;exitDx=0;exitDy=0;entryX=0;entryY=0.5;entryDx=0;entryDy=0;" edge="1" parent="1" source="k1esWwxB7F54cW-bIOR9-102" target="k1esWwxB7F54cW-bIOR9-261">
          <mxGeometry relative="1" as="geometry" />
        </mxCell>
        <mxCell id="k1esWwxB7F54cW-bIOR9-102" value="d_in[6]" style="text;html=1;align=center;verticalAlign=middle;whiteSpace=wrap;rounded=0;" vertex="1" parent="1">
          <mxGeometry x="930" y="700" width="50" height="20" as="geometry" />
        </mxCell>
        <mxCell id="k1esWwxB7F54cW-bIOR9-103" style="edgeStyle=orthogonalEdgeStyle;rounded=0;orthogonalLoop=1;jettySize=auto;html=1;exitX=0.5;exitY=0;exitDx=0;exitDy=0;entryX=0;entryY=0.5;entryDx=0;entryDy=0;" edge="1" parent="1" source="k1esWwxB7F54cW-bIOR9-104" target="k1esWwxB7F54cW-bIOR9-263">
          <mxGeometry relative="1" as="geometry" />
        </mxCell>
        <mxCell id="k1esWwxB7F54cW-bIOR9-104" value="d_in[7]" style="text;html=1;align=center;verticalAlign=middle;whiteSpace=wrap;rounded=0;" vertex="1" parent="1">
          <mxGeometry x="880" y="700" width="50" height="20" as="geometry" />
        </mxCell>
        <mxCell id="k1esWwxB7F54cW-bIOR9-105" style="edgeStyle=orthogonalEdgeStyle;rounded=0;orthogonalLoop=1;jettySize=auto;html=1;exitX=0.5;exitY=0;exitDx=0;exitDy=0;entryX=0;entryY=0.5;entryDx=0;entryDy=0;" edge="1" parent="1" source="k1esWwxB7F54cW-bIOR9-106" target="k1esWwxB7F54cW-bIOR9-255">
          <mxGeometry relative="1" as="geometry" />
        </mxCell>
        <mxCell id="k1esWwxB7F54cW-bIOR9-106" value="d_in[8]" style="text;html=1;align=center;verticalAlign=middle;whiteSpace=wrap;rounded=0;" vertex="1" parent="1">
          <mxGeometry x="830" y="700" width="50" height="20" as="geometry" />
        </mxCell>
        <mxCell id="k1esWwxB7F54cW-bIOR9-107" style="edgeStyle=orthogonalEdgeStyle;rounded=0;orthogonalLoop=1;jettySize=auto;html=1;exitX=0.5;exitY=0;exitDx=0;exitDy=0;entryX=0;entryY=0.5;entryDx=0;entryDy=0;" edge="1" parent="1" source="k1esWwxB7F54cW-bIOR9-108" target="k1esWwxB7F54cW-bIOR9-253">
          <mxGeometry relative="1" as="geometry" />
        </mxCell>
        <mxCell id="k1esWwxB7F54cW-bIOR9-108" value="d_in[9]" style="text;html=1;align=center;verticalAlign=middle;whiteSpace=wrap;rounded=0;" vertex="1" parent="1">
          <mxGeometry x="780" y="700" width="50" height="20" as="geometry" />
        </mxCell>
        <mxCell id="k1esWwxB7F54cW-bIOR9-109" style="edgeStyle=orthogonalEdgeStyle;rounded=0;orthogonalLoop=1;jettySize=auto;html=1;exitX=0.5;exitY=0;exitDx=0;exitDy=0;entryX=0;entryY=0.5;entryDx=0;entryDy=0;" edge="1" parent="1" source="k1esWwxB7F54cW-bIOR9-110" target="k1esWwxB7F54cW-bIOR9-251">
          <mxGeometry relative="1" as="geometry" />
        </mxCell>
        <mxCell id="k1esWwxB7F54cW-bIOR9-110" value="d_in[10]" style="text;html=1;align=center;verticalAlign=middle;whiteSpace=wrap;rounded=0;" vertex="1" parent="1">
          <mxGeometry x="730" y="700" width="50" height="20" as="geometry" />
        </mxCell>
        <mxCell id="k1esWwxB7F54cW-bIOR9-111" style="edgeStyle=orthogonalEdgeStyle;rounded=0;orthogonalLoop=1;jettySize=auto;html=1;exitX=0.5;exitY=0;exitDx=0;exitDy=0;entryX=0;entryY=0.5;entryDx=0;entryDy=0;" edge="1" parent="1" source="k1esWwxB7F54cW-bIOR9-112" target="k1esWwxB7F54cW-bIOR9-257">
          <mxGeometry relative="1" as="geometry" />
        </mxCell>
        <mxCell id="k1esWwxB7F54cW-bIOR9-112" value="d_in[11]" style="text;html=1;align=center;verticalAlign=middle;whiteSpace=wrap;rounded=0;" vertex="1" parent="1">
          <mxGeometry x="680" y="700" width="50" height="20" as="geometry" />
        </mxCell>
        <mxCell id="k1esWwxB7F54cW-bIOR9-113" style="edgeStyle=orthogonalEdgeStyle;rounded=0;orthogonalLoop=1;jettySize=auto;html=1;exitX=0.5;exitY=0;exitDx=0;exitDy=0;entryX=0;entryY=0.5;entryDx=0;entryDy=0;" edge="1" parent="1" source="k1esWwxB7F54cW-bIOR9-114" target="k1esWwxB7F54cW-bIOR9-249">
          <mxGeometry relative="1" as="geometry" />
        </mxCell>
        <mxCell id="k1esWwxB7F54cW-bIOR9-114" value="d_in[12]" style="text;html=1;align=center;verticalAlign=middle;whiteSpace=wrap;rounded=0;" vertex="1" parent="1">
          <mxGeometry x="630" y="700" width="50" height="20" as="geometry" />
        </mxCell>
        <mxCell id="k1esWwxB7F54cW-bIOR9-115" style="edgeStyle=orthogonalEdgeStyle;rounded=0;orthogonalLoop=1;jettySize=auto;html=1;exitX=0.5;exitY=0;exitDx=0;exitDy=0;entryX=0;entryY=0.5;entryDx=0;entryDy=0;" edge="1" parent="1" source="k1esWwxB7F54cW-bIOR9-116" target="k1esWwxB7F54cW-bIOR9-247">
          <mxGeometry relative="1" as="geometry" />
        </mxCell>
        <mxCell id="k1esWwxB7F54cW-bIOR9-116" value="d_in[13]" style="text;html=1;align=center;verticalAlign=middle;whiteSpace=wrap;rounded=0;" vertex="1" parent="1">
          <mxGeometry x="580" y="700" width="50" height="20" as="geometry" />
        </mxCell>
        <mxCell id="k1esWwxB7F54cW-bIOR9-117" style="edgeStyle=orthogonalEdgeStyle;rounded=0;orthogonalLoop=1;jettySize=auto;html=1;exitX=0.5;exitY=0;exitDx=0;exitDy=0;entryX=0;entryY=0.5;entryDx=0;entryDy=0;" edge="1" parent="1" source="k1esWwxB7F54cW-bIOR9-118" target="k1esWwxB7F54cW-bIOR9-245">
          <mxGeometry relative="1" as="geometry" />
        </mxCell>
        <mxCell id="k1esWwxB7F54cW-bIOR9-118" value="d_in[14]" style="text;html=1;align=center;verticalAlign=middle;whiteSpace=wrap;rounded=0;" vertex="1" parent="1">
          <mxGeometry x="530" y="700" width="50" height="20" as="geometry" />
        </mxCell>
        <mxCell id="k1esWwxB7F54cW-bIOR9-119" style="edgeStyle=orthogonalEdgeStyle;rounded=0;orthogonalLoop=1;jettySize=auto;html=1;exitX=0.5;exitY=0;exitDx=0;exitDy=0;entryX=0;entryY=0.5;entryDx=0;entryDy=0;" edge="1" parent="1" source="k1esWwxB7F54cW-bIOR9-120" target="k1esWwxB7F54cW-bIOR9-243">
          <mxGeometry relative="1" as="geometry" />
        </mxCell>
        <mxCell id="k1esWwxB7F54cW-bIOR9-120" value="d_in[15]" style="text;html=1;align=center;verticalAlign=middle;whiteSpace=wrap;rounded=0;" vertex="1" parent="1">
          <mxGeometry x="480" y="700" width="50" height="20" as="geometry" />
        </mxCell>
        <mxCell id="k1esWwxB7F54cW-bIOR9-121" style="edgeStyle=orthogonalEdgeStyle;rounded=0;orthogonalLoop=1;jettySize=auto;html=1;exitX=0.5;exitY=0;exitDx=0;exitDy=0;entryX=0;entryY=0.5;entryDx=0;entryDy=0;" edge="1" parent="1" source="k1esWwxB7F54cW-bIOR9-122" target="k1esWwxB7F54cW-bIOR9-241">
          <mxGeometry relative="1" as="geometry" />
        </mxCell>
        <mxCell id="k1esWwxB7F54cW-bIOR9-122" value="d_in[16]" style="text;html=1;align=center;verticalAlign=middle;whiteSpace=wrap;rounded=0;" vertex="1" parent="1">
          <mxGeometry x="430" y="700" width="50" height="20" as="geometry" />
        </mxCell>
        <mxCell id="k1esWwxB7F54cW-bIOR9-123" style="edgeStyle=orthogonalEdgeStyle;rounded=0;orthogonalLoop=1;jettySize=auto;html=1;exitX=0.5;exitY=0;exitDx=0;exitDy=0;entryX=0;entryY=0.5;entryDx=0;entryDy=0;" edge="1" parent="1" source="k1esWwxB7F54cW-bIOR9-124" target="k1esWwxB7F54cW-bIOR9-239">
          <mxGeometry relative="1" as="geometry" />
        </mxCell>
        <mxCell id="k1esWwxB7F54cW-bIOR9-124" value="d_in[17]" style="text;html=1;align=center;verticalAlign=middle;whiteSpace=wrap;rounded=0;" vertex="1" parent="1">
          <mxGeometry x="380" y="700" width="50" height="20" as="geometry" />
        </mxCell>
        <mxCell id="k1esWwxB7F54cW-bIOR9-125" style="edgeStyle=orthogonalEdgeStyle;rounded=0;orthogonalLoop=1;jettySize=auto;html=1;exitX=0.5;exitY=0;exitDx=0;exitDy=0;entryX=0;entryY=0.5;entryDx=0;entryDy=0;" edge="1" parent="1" source="k1esWwxB7F54cW-bIOR9-126" target="k1esWwxB7F54cW-bIOR9-237">
          <mxGeometry relative="1" as="geometry" />
        </mxCell>
        <mxCell id="k1esWwxB7F54cW-bIOR9-126" value="d_in[18]" style="text;html=1;align=center;verticalAlign=middle;whiteSpace=wrap;rounded=0;" vertex="1" parent="1">
          <mxGeometry x="330" y="700" width="50" height="20" as="geometry" />
        </mxCell>
        <mxCell id="k1esWwxB7F54cW-bIOR9-127" style="edgeStyle=orthogonalEdgeStyle;rounded=0;orthogonalLoop=1;jettySize=auto;html=1;exitX=0.5;exitY=0;exitDx=0;exitDy=0;entryX=0;entryY=0.5;entryDx=0;entryDy=0;" edge="1" parent="1" source="k1esWwxB7F54cW-bIOR9-128" target="k1esWwxB7F54cW-bIOR9-235">
          <mxGeometry relative="1" as="geometry" />
        </mxCell>
        <mxCell id="k1esWwxB7F54cW-bIOR9-128" value="d_in[19]" style="text;html=1;align=center;verticalAlign=middle;whiteSpace=wrap;rounded=0;" vertex="1" parent="1">
          <mxGeometry x="280" y="700" width="50" height="20" as="geometry" />
        </mxCell>
        <mxCell id="k1esWwxB7F54cW-bIOR9-129" style="edgeStyle=orthogonalEdgeStyle;rounded=0;orthogonalLoop=1;jettySize=auto;html=1;exitX=0.5;exitY=0;exitDx=0;exitDy=0;entryX=0;entryY=0.5;entryDx=0;entryDy=0;" edge="1" parent="1" source="k1esWwxB7F54cW-bIOR9-130" target="k1esWwxB7F54cW-bIOR9-233">
          <mxGeometry relative="1" as="geometry" />
        </mxCell>
        <mxCell id="k1esWwxB7F54cW-bIOR9-130" value="d_in[20]" style="text;html=1;align=center;verticalAlign=middle;whiteSpace=wrap;rounded=0;" vertex="1" parent="1">
          <mxGeometry x="230" y="700" width="50" height="20" as="geometry" />
        </mxCell>
        <mxCell id="k1esWwxB7F54cW-bIOR9-131" style="edgeStyle=orthogonalEdgeStyle;rounded=0;orthogonalLoop=1;jettySize=auto;html=1;exitX=0.5;exitY=0;exitDx=0;exitDy=0;entryX=0;entryY=0.5;entryDx=0;entryDy=0;" edge="1" parent="1" source="k1esWwxB7F54cW-bIOR9-132" target="k1esWwxB7F54cW-bIOR9-231">
          <mxGeometry relative="1" as="geometry" />
        </mxCell>
        <mxCell id="k1esWwxB7F54cW-bIOR9-132" value="d_in[21]" style="text;html=1;align=center;verticalAlign=middle;whiteSpace=wrap;rounded=0;" vertex="1" parent="1">
          <mxGeometry x="180" y="700" width="50" height="20" as="geometry" />
        </mxCell>
        <mxCell id="k1esWwxB7F54cW-bIOR9-133" style="edgeStyle=orthogonalEdgeStyle;rounded=0;orthogonalLoop=1;jettySize=auto;html=1;exitX=0.5;exitY=0;exitDx=0;exitDy=0;entryX=0;entryY=0.5;entryDx=0;entryDy=0;" edge="1" parent="1" source="k1esWwxB7F54cW-bIOR9-134" target="k1esWwxB7F54cW-bIOR9-229">
          <mxGeometry relative="1" as="geometry" />
        </mxCell>
        <mxCell id="k1esWwxB7F54cW-bIOR9-134" value="d_in[22]" style="text;html=1;align=center;verticalAlign=middle;whiteSpace=wrap;rounded=0;" vertex="1" parent="1">
          <mxGeometry x="130" y="700" width="50" height="20" as="geometry" />
        </mxCell>
        <mxCell id="k1esWwxB7F54cW-bIOR9-135" style="edgeStyle=orthogonalEdgeStyle;rounded=0;orthogonalLoop=1;jettySize=auto;html=1;exitX=0.5;exitY=0;exitDx=0;exitDy=0;entryX=0;entryY=0.5;entryDx=0;entryDy=0;" edge="1" parent="1" source="k1esWwxB7F54cW-bIOR9-136" target="k1esWwxB7F54cW-bIOR9-227">
          <mxGeometry relative="1" as="geometry" />
        </mxCell>
        <mxCell id="k1esWwxB7F54cW-bIOR9-136" value="d_in[23]" style="text;html=1;align=center;verticalAlign=middle;whiteSpace=wrap;rounded=0;" vertex="1" parent="1">
          <mxGeometry x="80" y="700" width="50" height="20" as="geometry" />
        </mxCell>
        <mxCell id="k1esWwxB7F54cW-bIOR9-137" value="d_shift[27]" style="text;html=1;align=center;verticalAlign=middle;whiteSpace=wrap;rounded=0;" vertex="1" parent="1">
          <mxGeometry x="-170" y="90" width="60" height="30" as="geometry" />
        </mxCell>
        <mxCell id="k1esWwxB7F54cW-bIOR9-138" value="d_shift[26]" style="text;html=1;align=center;verticalAlign=middle;whiteSpace=wrap;rounded=0;" vertex="1" parent="1">
          <mxGeometry x="-170" y="110" width="60" height="30" as="geometry" />
        </mxCell>
        <mxCell id="k1esWwxB7F54cW-bIOR9-139" value="d_shift[25]" style="text;html=1;align=center;verticalAlign=middle;whiteSpace=wrap;rounded=0;" vertex="1" parent="1">
          <mxGeometry x="-170" y="130" width="60" height="30" as="geometry" />
        </mxCell>
        <mxCell id="k1esWwxB7F54cW-bIOR9-140" value="d_shift[24]" style="text;html=1;align=center;verticalAlign=middle;whiteSpace=wrap;rounded=0;" vertex="1" parent="1">
          <mxGeometry x="-170" y="150" width="60" height="30" as="geometry" />
        </mxCell>
        <mxCell id="k1esWwxB7F54cW-bIOR9-141" value="d_shift[20]" style="text;html=1;align=center;verticalAlign=middle;whiteSpace=wrap;rounded=0;" vertex="1" parent="1">
          <mxGeometry x="-170" y="230" width="60" height="30" as="geometry" />
        </mxCell>
        <mxCell id="k1esWwxB7F54cW-bIOR9-142" value="d_shift[23]" style="text;html=1;align=center;verticalAlign=middle;whiteSpace=wrap;rounded=0;" vertex="1" parent="1">
          <mxGeometry x="-170" y="170" width="60" height="30" as="geometry" />
        </mxCell>
        <mxCell id="k1esWwxB7F54cW-bIOR9-143" value="d_shift[21]" style="text;html=1;align=center;verticalAlign=middle;whiteSpace=wrap;rounded=0;" vertex="1" parent="1">
          <mxGeometry x="-170" y="210" width="60" height="30" as="geometry" />
        </mxCell>
        <mxCell id="k1esWwxB7F54cW-bIOR9-144" value="d_shift[22]" style="text;html=1;align=center;verticalAlign=middle;whiteSpace=wrap;rounded=0;" vertex="1" parent="1">
          <mxGeometry x="-170" y="190" width="60" height="30" as="geometry" />
        </mxCell>
        <mxCell id="k1esWwxB7F54cW-bIOR9-145" value="d_shift[16]" style="text;html=1;align=center;verticalAlign=middle;whiteSpace=wrap;rounded=0;" vertex="1" parent="1">
          <mxGeometry x="-170" y="310" width="60" height="30" as="geometry" />
        </mxCell>
        <mxCell id="k1esWwxB7F54cW-bIOR9-146" value="d_shift[18]" style="text;html=1;align=center;verticalAlign=middle;whiteSpace=wrap;rounded=0;" vertex="1" parent="1">
          <mxGeometry x="-170" y="270" width="60" height="30" as="geometry" />
        </mxCell>
        <mxCell id="k1esWwxB7F54cW-bIOR9-147" value="d_shift[17]" style="text;html=1;align=center;verticalAlign=middle;whiteSpace=wrap;rounded=0;" vertex="1" parent="1">
          <mxGeometry x="-170" y="290" width="60" height="30" as="geometry" />
        </mxCell>
        <mxCell id="k1esWwxB7F54cW-bIOR9-148" value="d_shift[14]" style="text;html=1;align=center;verticalAlign=middle;whiteSpace=wrap;rounded=0;" vertex="1" parent="1">
          <mxGeometry x="-170" y="350" width="60" height="30" as="geometry" />
        </mxCell>
        <mxCell id="k1esWwxB7F54cW-bIOR9-149" value="d_shift[15]" style="text;html=1;align=center;verticalAlign=middle;whiteSpace=wrap;rounded=0;" vertex="1" parent="1">
          <mxGeometry x="-170" y="330" width="60" height="30" as="geometry" />
        </mxCell>
        <mxCell id="k1esWwxB7F54cW-bIOR9-150" value="d_shift[13]" style="text;html=1;align=center;verticalAlign=middle;whiteSpace=wrap;rounded=0;" vertex="1" parent="1">
          <mxGeometry x="-170" y="370" width="60" height="30" as="geometry" />
        </mxCell>
        <mxCell id="k1esWwxB7F54cW-bIOR9-151" value="d_shift[10]" style="text;html=1;align=center;verticalAlign=middle;whiteSpace=wrap;rounded=0;" vertex="1" parent="1">
          <mxGeometry x="-170" y="430" width="60" height="30" as="geometry" />
        </mxCell>
        <mxCell id="k1esWwxB7F54cW-bIOR9-152" value="d_shift[11]" style="text;html=1;align=center;verticalAlign=middle;whiteSpace=wrap;rounded=0;" vertex="1" parent="1">
          <mxGeometry x="-170" y="410" width="60" height="30" as="geometry" />
        </mxCell>
        <mxCell id="k1esWwxB7F54cW-bIOR9-153" value="d_shift[12]" style="text;html=1;align=center;verticalAlign=middle;whiteSpace=wrap;rounded=0;" vertex="1" parent="1">
          <mxGeometry x="-170" y="390" width="60" height="30" as="geometry" />
        </mxCell>
        <mxCell id="k1esWwxB7F54cW-bIOR9-154" value="d_shift[8]" style="text;html=1;align=center;verticalAlign=middle;whiteSpace=wrap;rounded=0;" vertex="1" parent="1">
          <mxGeometry x="-170" y="470" width="60" height="30" as="geometry" />
        </mxCell>
        <mxCell id="k1esWwxB7F54cW-bIOR9-155" value="d_shift[9]" style="text;html=1;align=center;verticalAlign=middle;whiteSpace=wrap;rounded=0;" vertex="1" parent="1">
          <mxGeometry x="-170" y="450" width="60" height="30" as="geometry" />
        </mxCell>
        <mxCell id="k1esWwxB7F54cW-bIOR9-156" value="d_shift[3]" style="text;html=1;align=center;verticalAlign=middle;whiteSpace=wrap;rounded=0;" vertex="1" parent="1">
          <mxGeometry x="-170" y="570" width="60" height="30" as="geometry" />
        </mxCell>
        <mxCell id="k1esWwxB7F54cW-bIOR9-157" value="d_shift[1]" style="text;html=1;align=center;verticalAlign=middle;whiteSpace=wrap;rounded=0;" vertex="1" parent="1">
          <mxGeometry x="-170" y="610" width="60" height="30" as="geometry" />
        </mxCell>
        <mxCell id="k1esWwxB7F54cW-bIOR9-158" value="d_shift[2]" style="text;html=1;align=center;verticalAlign=middle;whiteSpace=wrap;rounded=0;" vertex="1" parent="1">
          <mxGeometry x="-170" y="590" width="60" height="30" as="geometry" />
        </mxCell>
        <mxCell id="k1esWwxB7F54cW-bIOR9-159" value="d_shift[0]" style="text;html=1;align=center;verticalAlign=middle;whiteSpace=wrap;rounded=0;" vertex="1" parent="1">
          <mxGeometry x="-170" y="630" width="60" height="30" as="geometry" />
        </mxCell>
        <mxCell id="k1esWwxB7F54cW-bIOR9-160" value="d_shift[4]" style="text;html=1;align=center;verticalAlign=middle;whiteSpace=wrap;rounded=0;" vertex="1" parent="1">
          <mxGeometry x="-170" y="550" width="60" height="30" as="geometry" />
        </mxCell>
        <mxCell id="k1esWwxB7F54cW-bIOR9-161" value="d_shift[5]" style="text;html=1;align=center;verticalAlign=middle;whiteSpace=wrap;rounded=0;" vertex="1" parent="1">
          <mxGeometry x="-170" y="530" width="60" height="30" as="geometry" />
        </mxCell>
        <mxCell id="k1esWwxB7F54cW-bIOR9-162" value="d_shift[6]" style="text;html=1;align=center;verticalAlign=middle;whiteSpace=wrap;rounded=0;" vertex="1" parent="1">
          <mxGeometry x="-170" y="510" width="60" height="30" as="geometry" />
        </mxCell>
        <mxCell id="k1esWwxB7F54cW-bIOR9-163" value="d_shift[7]" style="text;html=1;align=center;verticalAlign=middle;whiteSpace=wrap;rounded=0;" vertex="1" parent="1">
          <mxGeometry x="-170" y="490" width="60" height="30" as="geometry" />
        </mxCell>
        <mxCell id="k1esWwxB7F54cW-bIOR9-164" value="d_shift[19]" style="text;html=1;align=center;verticalAlign=middle;whiteSpace=wrap;rounded=0;" vertex="1" parent="1">
          <mxGeometry x="-170" y="250" width="60" height="30" as="geometry" />
        </mxCell>
        <mxCell id="k1esWwxB7F54cW-bIOR9-165" value="" style="triangle;whiteSpace=wrap;html=1;rotation=90;" vertex="1" parent="1">
          <mxGeometry x="5" y="50" width="20" height="30" as="geometry" />
        </mxCell>
        <mxCell id="k1esWwxB7F54cW-bIOR9-308" style="edgeStyle=orthogonalEdgeStyle;rounded=0;orthogonalLoop=1;jettySize=auto;html=1;exitX=1;exitY=0.5;exitDx=0;exitDy=0;entryX=0;entryY=0.5;entryDx=0;entryDy=0;" edge="1" parent="1" source="k1esWwxB7F54cW-bIOR9-167" target="k1esWwxB7F54cW-bIOR9-55">
          <mxGeometry relative="1" as="geometry" />
        </mxCell>
        <mxCell id="k1esWwxB7F54cW-bIOR9-167" value="" style="triangle;whiteSpace=wrap;html=1;rotation=90;" vertex="1" parent="1">
          <mxGeometry x="55" y="50" width="20" height="30" as="geometry" />
        </mxCell>
        <mxCell id="k1esWwxB7F54cW-bIOR9-307" style="edgeStyle=orthogonalEdgeStyle;rounded=0;orthogonalLoop=1;jettySize=auto;html=1;exitX=1;exitY=0.5;exitDx=0;exitDy=0;entryX=0;entryY=0.5;entryDx=0;entryDy=0;" edge="1" parent="1" source="k1esWwxB7F54cW-bIOR9-169" target="k1esWwxB7F54cW-bIOR9-56">
          <mxGeometry relative="1" as="geometry" />
        </mxCell>
        <mxCell id="k1esWwxB7F54cW-bIOR9-169" value="" style="triangle;whiteSpace=wrap;html=1;rotation=90;" vertex="1" parent="1">
          <mxGeometry x="105" y="50" width="20" height="30" as="geometry" />
        </mxCell>
        <mxCell id="k1esWwxB7F54cW-bIOR9-306" style="edgeStyle=orthogonalEdgeStyle;rounded=0;orthogonalLoop=1;jettySize=auto;html=1;exitX=1;exitY=0.5;exitDx=0;exitDy=0;entryX=0;entryY=0.5;entryDx=0;entryDy=0;" edge="1" parent="1" source="k1esWwxB7F54cW-bIOR9-171" target="k1esWwxB7F54cW-bIOR9-57">
          <mxGeometry relative="1" as="geometry" />
        </mxCell>
        <mxCell id="k1esWwxB7F54cW-bIOR9-171" value="" style="triangle;whiteSpace=wrap;html=1;rotation=90;" vertex="1" parent="1">
          <mxGeometry x="155" y="50" width="20" height="30" as="geometry" />
        </mxCell>
        <mxCell id="k1esWwxB7F54cW-bIOR9-305" style="edgeStyle=orthogonalEdgeStyle;rounded=0;orthogonalLoop=1;jettySize=auto;html=1;exitX=1;exitY=0.5;exitDx=0;exitDy=0;entryX=0;entryY=0.5;entryDx=0;entryDy=0;" edge="1" parent="1" source="k1esWwxB7F54cW-bIOR9-173" target="k1esWwxB7F54cW-bIOR9-58">
          <mxGeometry relative="1" as="geometry" />
        </mxCell>
        <mxCell id="k1esWwxB7F54cW-bIOR9-173" value="" style="triangle;whiteSpace=wrap;html=1;rotation=90;" vertex="1" parent="1">
          <mxGeometry x="205" y="50" width="20" height="30" as="geometry" />
        </mxCell>
        <mxCell id="k1esWwxB7F54cW-bIOR9-304" style="edgeStyle=orthogonalEdgeStyle;rounded=0;orthogonalLoop=1;jettySize=auto;html=1;exitX=1;exitY=0.5;exitDx=0;exitDy=0;entryX=0;entryY=0.5;entryDx=0;entryDy=0;" edge="1" parent="1" source="k1esWwxB7F54cW-bIOR9-175" target="k1esWwxB7F54cW-bIOR9-60">
          <mxGeometry relative="1" as="geometry" />
        </mxCell>
        <mxCell id="k1esWwxB7F54cW-bIOR9-175" value="" style="triangle;whiteSpace=wrap;html=1;rotation=90;" vertex="1" parent="1">
          <mxGeometry x="255" y="50" width="20" height="30" as="geometry" />
        </mxCell>
        <mxCell id="k1esWwxB7F54cW-bIOR9-303" style="edgeStyle=orthogonalEdgeStyle;rounded=0;orthogonalLoop=1;jettySize=auto;html=1;exitX=1;exitY=0.5;exitDx=0;exitDy=0;entryX=0;entryY=0.5;entryDx=0;entryDy=0;" edge="1" parent="1" source="k1esWwxB7F54cW-bIOR9-177" target="k1esWwxB7F54cW-bIOR9-62">
          <mxGeometry relative="1" as="geometry" />
        </mxCell>
        <mxCell id="k1esWwxB7F54cW-bIOR9-177" value="" style="triangle;whiteSpace=wrap;html=1;rotation=90;" vertex="1" parent="1">
          <mxGeometry x="305" y="50" width="20" height="30" as="geometry" />
        </mxCell>
        <mxCell id="k1esWwxB7F54cW-bIOR9-302" style="edgeStyle=orthogonalEdgeStyle;rounded=0;orthogonalLoop=1;jettySize=auto;html=1;exitX=1;exitY=0.5;exitDx=0;exitDy=0;entryX=0;entryY=0.5;entryDx=0;entryDy=0;" edge="1" parent="1" source="k1esWwxB7F54cW-bIOR9-179" target="k1esWwxB7F54cW-bIOR9-61">
          <mxGeometry relative="1" as="geometry" />
        </mxCell>
        <mxCell id="k1esWwxB7F54cW-bIOR9-179" value="" style="triangle;whiteSpace=wrap;html=1;rotation=90;" vertex="1" parent="1">
          <mxGeometry x="355" y="50" width="20" height="30" as="geometry" />
        </mxCell>
        <mxCell id="k1esWwxB7F54cW-bIOR9-301" style="edgeStyle=orthogonalEdgeStyle;rounded=0;orthogonalLoop=1;jettySize=auto;html=1;exitX=1;exitY=0.5;exitDx=0;exitDy=0;entryX=0;entryY=0.5;entryDx=0;entryDy=0;" edge="1" parent="1" source="k1esWwxB7F54cW-bIOR9-181" target="k1esWwxB7F54cW-bIOR9-59">
          <mxGeometry relative="1" as="geometry" />
        </mxCell>
        <mxCell id="k1esWwxB7F54cW-bIOR9-181" value="" style="triangle;whiteSpace=wrap;html=1;rotation=90;" vertex="1" parent="1">
          <mxGeometry x="405" y="50" width="20" height="30" as="geometry" />
        </mxCell>
        <mxCell id="k1esWwxB7F54cW-bIOR9-300" style="edgeStyle=orthogonalEdgeStyle;rounded=0;orthogonalLoop=1;jettySize=auto;html=1;exitX=1;exitY=0.5;exitDx=0;exitDy=0;entryX=0;entryY=0.5;entryDx=0;entryDy=0;" edge="1" parent="1" source="k1esWwxB7F54cW-bIOR9-183" target="k1esWwxB7F54cW-bIOR9-82">
          <mxGeometry relative="1" as="geometry" />
        </mxCell>
        <mxCell id="k1esWwxB7F54cW-bIOR9-183" value="" style="triangle;whiteSpace=wrap;html=1;rotation=90;" vertex="1" parent="1">
          <mxGeometry x="455" y="50" width="20" height="30" as="geometry" />
        </mxCell>
        <mxCell id="k1esWwxB7F54cW-bIOR9-299" style="edgeStyle=orthogonalEdgeStyle;rounded=0;orthogonalLoop=1;jettySize=auto;html=1;exitX=1;exitY=0.5;exitDx=0;exitDy=0;entryX=0;entryY=0.5;entryDx=0;entryDy=0;" edge="1" parent="1" source="k1esWwxB7F54cW-bIOR9-185" target="k1esWwxB7F54cW-bIOR9-64">
          <mxGeometry relative="1" as="geometry" />
        </mxCell>
        <mxCell id="k1esWwxB7F54cW-bIOR9-185" value="" style="triangle;whiteSpace=wrap;html=1;rotation=90;" vertex="1" parent="1">
          <mxGeometry x="505" y="50" width="20" height="30" as="geometry" />
        </mxCell>
        <mxCell id="k1esWwxB7F54cW-bIOR9-298" style="edgeStyle=orthogonalEdgeStyle;rounded=0;orthogonalLoop=1;jettySize=auto;html=1;exitX=1;exitY=0.5;exitDx=0;exitDy=0;entryX=0;entryY=0.5;entryDx=0;entryDy=0;" edge="1" parent="1" source="k1esWwxB7F54cW-bIOR9-187" target="k1esWwxB7F54cW-bIOR9-65">
          <mxGeometry relative="1" as="geometry" />
        </mxCell>
        <mxCell id="k1esWwxB7F54cW-bIOR9-187" value="" style="triangle;whiteSpace=wrap;html=1;rotation=90;" vertex="1" parent="1">
          <mxGeometry x="555" y="50" width="20" height="30" as="geometry" />
        </mxCell>
        <mxCell id="k1esWwxB7F54cW-bIOR9-297" style="edgeStyle=orthogonalEdgeStyle;rounded=0;orthogonalLoop=1;jettySize=auto;html=1;exitX=1;exitY=0.5;exitDx=0;exitDy=0;entryX=0;entryY=0.5;entryDx=0;entryDy=0;" edge="1" parent="1" source="k1esWwxB7F54cW-bIOR9-189" target="k1esWwxB7F54cW-bIOR9-63">
          <mxGeometry relative="1" as="geometry" />
        </mxCell>
        <mxCell id="k1esWwxB7F54cW-bIOR9-189" value="" style="triangle;whiteSpace=wrap;html=1;rotation=90;" vertex="1" parent="1">
          <mxGeometry x="605" y="50" width="20" height="30" as="geometry" />
        </mxCell>
        <mxCell id="k1esWwxB7F54cW-bIOR9-296" style="edgeStyle=orthogonalEdgeStyle;rounded=0;orthogonalLoop=1;jettySize=auto;html=1;exitX=1;exitY=0.5;exitDx=0;exitDy=0;entryX=0;entryY=0.5;entryDx=0;entryDy=0;" edge="1" parent="1" source="k1esWwxB7F54cW-bIOR9-191" target="k1esWwxB7F54cW-bIOR9-67">
          <mxGeometry relative="1" as="geometry" />
        </mxCell>
        <mxCell id="k1esWwxB7F54cW-bIOR9-191" value="" style="triangle;whiteSpace=wrap;html=1;rotation=90;" vertex="1" parent="1">
          <mxGeometry x="655" y="50" width="20" height="30" as="geometry" />
        </mxCell>
        <mxCell id="k1esWwxB7F54cW-bIOR9-295" style="edgeStyle=orthogonalEdgeStyle;rounded=0;orthogonalLoop=1;jettySize=auto;html=1;exitX=1;exitY=0.5;exitDx=0;exitDy=0;entryX=0;entryY=0.5;entryDx=0;entryDy=0;" edge="1" parent="1" source="k1esWwxB7F54cW-bIOR9-193" target="k1esWwxB7F54cW-bIOR9-66">
          <mxGeometry relative="1" as="geometry" />
        </mxCell>
        <mxCell id="k1esWwxB7F54cW-bIOR9-193" value="" style="triangle;whiteSpace=wrap;html=1;rotation=90;" vertex="1" parent="1">
          <mxGeometry x="705" y="50" width="20" height="30" as="geometry" />
        </mxCell>
        <mxCell id="k1esWwxB7F54cW-bIOR9-293" style="edgeStyle=orthogonalEdgeStyle;rounded=0;orthogonalLoop=1;jettySize=auto;html=1;exitX=1;exitY=0.5;exitDx=0;exitDy=0;entryX=0;entryY=0.5;entryDx=0;entryDy=0;" edge="1" parent="1" source="k1esWwxB7F54cW-bIOR9-195" target="k1esWwxB7F54cW-bIOR9-71">
          <mxGeometry relative="1" as="geometry" />
        </mxCell>
        <mxCell id="k1esWwxB7F54cW-bIOR9-195" value="" style="triangle;whiteSpace=wrap;html=1;rotation=90;" vertex="1" parent="1">
          <mxGeometry x="805" y="50" width="20" height="30" as="geometry" />
        </mxCell>
        <mxCell id="k1esWwxB7F54cW-bIOR9-292" style="edgeStyle=orthogonalEdgeStyle;rounded=0;orthogonalLoop=1;jettySize=auto;html=1;exitX=1;exitY=0.5;exitDx=0;exitDy=0;entryX=0;entryY=0.5;entryDx=0;entryDy=0;" edge="1" parent="1" source="k1esWwxB7F54cW-bIOR9-197" target="k1esWwxB7F54cW-bIOR9-70">
          <mxGeometry relative="1" as="geometry" />
        </mxCell>
        <mxCell id="k1esWwxB7F54cW-bIOR9-197" value="" style="triangle;whiteSpace=wrap;html=1;rotation=90;" vertex="1" parent="1">
          <mxGeometry x="855" y="50" width="20" height="30" as="geometry" />
        </mxCell>
        <mxCell id="k1esWwxB7F54cW-bIOR9-291" style="edgeStyle=orthogonalEdgeStyle;rounded=0;orthogonalLoop=1;jettySize=auto;html=1;exitX=1;exitY=0.5;exitDx=0;exitDy=0;entryX=0;entryY=0.5;entryDx=0;entryDy=0;" edge="1" parent="1" source="k1esWwxB7F54cW-bIOR9-199" target="k1esWwxB7F54cW-bIOR9-69">
          <mxGeometry relative="1" as="geometry" />
        </mxCell>
        <mxCell id="k1esWwxB7F54cW-bIOR9-199" value="" style="triangle;whiteSpace=wrap;html=1;rotation=90;" vertex="1" parent="1">
          <mxGeometry x="905" y="50" width="20" height="30" as="geometry" />
        </mxCell>
        <mxCell id="k1esWwxB7F54cW-bIOR9-294" style="edgeStyle=orthogonalEdgeStyle;rounded=0;orthogonalLoop=1;jettySize=auto;html=1;exitX=1;exitY=0.5;exitDx=0;exitDy=0;entryX=0;entryY=0.5;entryDx=0;entryDy=0;" edge="1" parent="1" source="k1esWwxB7F54cW-bIOR9-201" target="k1esWwxB7F54cW-bIOR9-68">
          <mxGeometry relative="1" as="geometry" />
        </mxCell>
        <mxCell id="k1esWwxB7F54cW-bIOR9-201" value="" style="triangle;whiteSpace=wrap;html=1;rotation=90;" vertex="1" parent="1">
          <mxGeometry x="755" y="50" width="20" height="30" as="geometry" />
        </mxCell>
        <mxCell id="k1esWwxB7F54cW-bIOR9-288" style="edgeStyle=orthogonalEdgeStyle;rounded=0;orthogonalLoop=1;jettySize=auto;html=1;exitX=1;exitY=0.5;exitDx=0;exitDy=0;entryX=0;entryY=0.5;entryDx=0;entryDy=0;" edge="1" parent="1" source="k1esWwxB7F54cW-bIOR9-203" target="k1esWwxB7F54cW-bIOR9-81">
          <mxGeometry relative="1" as="geometry" />
        </mxCell>
        <mxCell id="k1esWwxB7F54cW-bIOR9-203" value="" style="triangle;whiteSpace=wrap;html=1;rotation=90;" vertex="1" parent="1">
          <mxGeometry x="1055" y="50" width="20" height="30" as="geometry" />
        </mxCell>
        <mxCell id="k1esWwxB7F54cW-bIOR9-289" style="edgeStyle=orthogonalEdgeStyle;rounded=0;orthogonalLoop=1;jettySize=auto;html=1;exitX=1;exitY=0.5;exitDx=0;exitDy=0;entryX=0;entryY=0.5;entryDx=0;entryDy=0;" edge="1" parent="1" source="k1esWwxB7F54cW-bIOR9-205" target="k1esWwxB7F54cW-bIOR9-72">
          <mxGeometry relative="1" as="geometry" />
        </mxCell>
        <mxCell id="k1esWwxB7F54cW-bIOR9-205" value="" style="triangle;whiteSpace=wrap;html=1;rotation=90;" vertex="1" parent="1">
          <mxGeometry x="1005" y="50" width="20" height="30" as="geometry" />
        </mxCell>
        <mxCell id="k1esWwxB7F54cW-bIOR9-290" style="edgeStyle=orthogonalEdgeStyle;rounded=0;orthogonalLoop=1;jettySize=auto;html=1;exitX=1;exitY=0.5;exitDx=0;exitDy=0;entryX=0;entryY=0.5;entryDx=0;entryDy=0;" edge="1" parent="1" source="k1esWwxB7F54cW-bIOR9-207" target="k1esWwxB7F54cW-bIOR9-73">
          <mxGeometry relative="1" as="geometry" />
        </mxCell>
        <mxCell id="k1esWwxB7F54cW-bIOR9-207" value="" style="triangle;whiteSpace=wrap;html=1;rotation=90;" vertex="1" parent="1">
          <mxGeometry x="955" y="50" width="20" height="30" as="geometry" />
        </mxCell>
        <mxCell id="k1esWwxB7F54cW-bIOR9-285" style="edgeStyle=orthogonalEdgeStyle;rounded=0;orthogonalLoop=1;jettySize=auto;html=1;exitX=1;exitY=0.5;exitDx=0;exitDy=0;entryX=0;entryY=0.5;entryDx=0;entryDy=0;" edge="1" parent="1" source="k1esWwxB7F54cW-bIOR9-209" target="k1esWwxB7F54cW-bIOR9-78">
          <mxGeometry relative="1" as="geometry" />
        </mxCell>
        <mxCell id="k1esWwxB7F54cW-bIOR9-209" value="" style="triangle;whiteSpace=wrap;html=1;rotation=90;" vertex="1" parent="1">
          <mxGeometry x="1205" y="50" width="20" height="30" as="geometry" />
        </mxCell>
        <mxCell id="k1esWwxB7F54cW-bIOR9-286" style="edgeStyle=orthogonalEdgeStyle;rounded=0;orthogonalLoop=1;jettySize=auto;html=1;exitX=1;exitY=0.5;exitDx=0;exitDy=0;entryX=0;entryY=0.5;entryDx=0;entryDy=0;" edge="1" parent="1" source="k1esWwxB7F54cW-bIOR9-211" target="k1esWwxB7F54cW-bIOR9-79">
          <mxGeometry relative="1" as="geometry" />
        </mxCell>
        <mxCell id="k1esWwxB7F54cW-bIOR9-211" value="" style="triangle;whiteSpace=wrap;html=1;rotation=90;" vertex="1" parent="1">
          <mxGeometry x="1155" y="50" width="20" height="30" as="geometry" />
        </mxCell>
        <mxCell id="k1esWwxB7F54cW-bIOR9-287" style="edgeStyle=orthogonalEdgeStyle;rounded=0;orthogonalLoop=1;jettySize=auto;html=1;exitX=1;exitY=0.5;exitDx=0;exitDy=0;entryX=0;entryY=0.5;entryDx=0;entryDy=0;" edge="1" parent="1" source="k1esWwxB7F54cW-bIOR9-213" target="k1esWwxB7F54cW-bIOR9-80">
          <mxGeometry relative="1" as="geometry" />
        </mxCell>
        <mxCell id="k1esWwxB7F54cW-bIOR9-213" value="" style="triangle;whiteSpace=wrap;html=1;rotation=90;" vertex="1" parent="1">
          <mxGeometry x="1105" y="50" width="20" height="30" as="geometry" />
        </mxCell>
        <mxCell id="k1esWwxB7F54cW-bIOR9-284" style="edgeStyle=orthogonalEdgeStyle;rounded=0;orthogonalLoop=1;jettySize=auto;html=1;exitX=1;exitY=0.5;exitDx=0;exitDy=0;entryX=0;entryY=0.5;entryDx=0;entryDy=0;" edge="1" parent="1" source="k1esWwxB7F54cW-bIOR9-215" target="k1esWwxB7F54cW-bIOR9-74">
          <mxGeometry relative="1" as="geometry" />
        </mxCell>
        <mxCell id="k1esWwxB7F54cW-bIOR9-215" value="" style="triangle;whiteSpace=wrap;html=1;rotation=90;" vertex="1" parent="1">
          <mxGeometry x="1255" y="50" width="20" height="30" as="geometry" />
        </mxCell>
        <mxCell id="k1esWwxB7F54cW-bIOR9-283" style="edgeStyle=orthogonalEdgeStyle;rounded=0;orthogonalLoop=1;jettySize=auto;html=1;exitX=1;exitY=0.5;exitDx=0;exitDy=0;entryX=0;entryY=0.5;entryDx=0;entryDy=0;" edge="1" parent="1" source="k1esWwxB7F54cW-bIOR9-217" target="k1esWwxB7F54cW-bIOR9-76">
          <mxGeometry relative="1" as="geometry" />
        </mxCell>
        <mxCell id="k1esWwxB7F54cW-bIOR9-217" value="" style="triangle;whiteSpace=wrap;html=1;rotation=90;" vertex="1" parent="1">
          <mxGeometry x="1305" y="50" width="20" height="30" as="geometry" />
        </mxCell>
        <mxCell id="k1esWwxB7F54cW-bIOR9-309" style="edgeStyle=orthogonalEdgeStyle;rounded=0;orthogonalLoop=1;jettySize=auto;html=1;exitX=1;exitY=0.5;exitDx=0;exitDy=0;entryX=0;entryY=0.5;entryDx=0;entryDy=0;" edge="1" parent="1">
          <mxGeometry relative="1" as="geometry">
            <mxPoint x="15" y="70" as="sourcePoint" />
            <mxPoint x="1370" y="640" as="targetPoint" />
            <Array as="points">
              <mxPoint x="15" y="95" />
              <mxPoint x="1330" y="95" />
              <mxPoint x="1330" y="640" />
            </Array>
          </mxGeometry>
        </mxCell>
        <mxCell id="k1esWwxB7F54cW-bIOR9-219" value="" style="triangle;whiteSpace=wrap;html=1;rotation=90;" vertex="1" parent="1">
          <mxGeometry x="5" y="50" width="20" height="30" as="geometry" />
        </mxCell>
        <mxCell id="k1esWwxB7F54cW-bIOR9-311" style="edgeStyle=orthogonalEdgeStyle;rounded=0;orthogonalLoop=1;jettySize=auto;html=1;exitX=1;exitY=0.5;exitDx=0;exitDy=0;entryX=1;entryY=0.5;entryDx=0;entryDy=0;" edge="1" parent="1" source="k1esWwxB7F54cW-bIOR9-221" target="k1esWwxB7F54cW-bIOR9-159">
          <mxGeometry relative="1" as="geometry" />
        </mxCell>
        <mxCell id="k1esWwxB7F54cW-bIOR9-221" value="" style="triangle;whiteSpace=wrap;html=1;rotation=-90;" vertex="1" parent="1">
          <mxGeometry x="-55" y="660" width="20" height="30" as="geometry" />
        </mxCell>
        <mxCell id="k1esWwxB7F54cW-bIOR9-341" style="edgeStyle=orthogonalEdgeStyle;rounded=0;orthogonalLoop=1;jettySize=auto;html=1;exitX=1;exitY=0.5;exitDx=0;exitDy=0;entryX=1;entryY=0.5;entryDx=0;entryDy=0;" edge="1" parent="1" source="k1esWwxB7F54cW-bIOR9-223" target="k1esWwxB7F54cW-bIOR9-137">
          <mxGeometry relative="1" as="geometry" />
        </mxCell>
        <mxCell id="k1esWwxB7F54cW-bIOR9-223" value="" style="triangle;whiteSpace=wrap;html=1;rotation=-90;" vertex="1" parent="1">
          <mxGeometry x="-5" y="660" width="20" height="30" as="geometry" />
        </mxCell>
        <mxCell id="k1esWwxB7F54cW-bIOR9-340" style="edgeStyle=orthogonalEdgeStyle;rounded=0;orthogonalLoop=1;jettySize=auto;html=1;exitX=1;exitY=0.5;exitDx=0;exitDy=0;entryX=1;entryY=0.5;entryDx=0;entryDy=0;" edge="1" parent="1" source="k1esWwxB7F54cW-bIOR9-225" target="k1esWwxB7F54cW-bIOR9-138">
          <mxGeometry relative="1" as="geometry" />
        </mxCell>
        <mxCell id="k1esWwxB7F54cW-bIOR9-225" value="" style="triangle;whiteSpace=wrap;html=1;rotation=-90;" vertex="1" parent="1">
          <mxGeometry x="45" y="660" width="20" height="30" as="geometry" />
        </mxCell>
        <mxCell id="k1esWwxB7F54cW-bIOR9-339" style="edgeStyle=orthogonalEdgeStyle;rounded=0;orthogonalLoop=1;jettySize=auto;html=1;exitX=1;exitY=0.5;exitDx=0;exitDy=0;entryX=1;entryY=0.5;entryDx=0;entryDy=0;" edge="1" parent="1" source="k1esWwxB7F54cW-bIOR9-227" target="k1esWwxB7F54cW-bIOR9-139">
          <mxGeometry relative="1" as="geometry" />
        </mxCell>
        <mxCell id="k1esWwxB7F54cW-bIOR9-227" value="" style="triangle;whiteSpace=wrap;html=1;rotation=-90;" vertex="1" parent="1">
          <mxGeometry x="95" y="660" width="20" height="30" as="geometry" />
        </mxCell>
        <mxCell id="k1esWwxB7F54cW-bIOR9-338" style="edgeStyle=orthogonalEdgeStyle;rounded=0;orthogonalLoop=1;jettySize=auto;html=1;exitX=1;exitY=0.5;exitDx=0;exitDy=0;entryX=1;entryY=0.5;entryDx=0;entryDy=0;" edge="1" parent="1" source="k1esWwxB7F54cW-bIOR9-229" target="k1esWwxB7F54cW-bIOR9-140">
          <mxGeometry relative="1" as="geometry" />
        </mxCell>
        <mxCell id="k1esWwxB7F54cW-bIOR9-229" value="" style="triangle;whiteSpace=wrap;html=1;rotation=-90;" vertex="1" parent="1">
          <mxGeometry x="145" y="660" width="20" height="30" as="geometry" />
        </mxCell>
        <mxCell id="k1esWwxB7F54cW-bIOR9-337" style="edgeStyle=orthogonalEdgeStyle;rounded=0;orthogonalLoop=1;jettySize=auto;html=1;exitX=1;exitY=0.5;exitDx=0;exitDy=0;entryX=1;entryY=0.5;entryDx=0;entryDy=0;" edge="1" parent="1" source="k1esWwxB7F54cW-bIOR9-231" target="k1esWwxB7F54cW-bIOR9-142">
          <mxGeometry relative="1" as="geometry" />
        </mxCell>
        <mxCell id="k1esWwxB7F54cW-bIOR9-231" value="" style="triangle;whiteSpace=wrap;html=1;rotation=-90;" vertex="1" parent="1">
          <mxGeometry x="195" y="660" width="20" height="30" as="geometry" />
        </mxCell>
        <mxCell id="k1esWwxB7F54cW-bIOR9-336" style="edgeStyle=orthogonalEdgeStyle;rounded=0;orthogonalLoop=1;jettySize=auto;html=1;exitX=1;exitY=0.5;exitDx=0;exitDy=0;entryX=1;entryY=0.5;entryDx=0;entryDy=0;" edge="1" parent="1" source="k1esWwxB7F54cW-bIOR9-233" target="k1esWwxB7F54cW-bIOR9-144">
          <mxGeometry relative="1" as="geometry" />
        </mxCell>
        <mxCell id="k1esWwxB7F54cW-bIOR9-233" value="" style="triangle;whiteSpace=wrap;html=1;rotation=90;direction=west;" vertex="1" parent="1">
          <mxGeometry x="245" y="660" width="20" height="30" as="geometry" />
        </mxCell>
        <mxCell id="k1esWwxB7F54cW-bIOR9-335" style="edgeStyle=orthogonalEdgeStyle;rounded=0;orthogonalLoop=1;jettySize=auto;html=1;exitX=1;exitY=0.5;exitDx=0;exitDy=0;entryX=1;entryY=0.5;entryDx=0;entryDy=0;" edge="1" parent="1" source="k1esWwxB7F54cW-bIOR9-235" target="k1esWwxB7F54cW-bIOR9-143">
          <mxGeometry relative="1" as="geometry" />
        </mxCell>
        <mxCell id="k1esWwxB7F54cW-bIOR9-235" value="" style="triangle;whiteSpace=wrap;html=1;rotation=-90;" vertex="1" parent="1">
          <mxGeometry x="295" y="660" width="20" height="30" as="geometry" />
        </mxCell>
        <mxCell id="k1esWwxB7F54cW-bIOR9-334" style="edgeStyle=orthogonalEdgeStyle;rounded=0;orthogonalLoop=1;jettySize=auto;html=1;exitX=1;exitY=0.5;exitDx=0;exitDy=0;entryX=1;entryY=0.5;entryDx=0;entryDy=0;" edge="1" parent="1" source="k1esWwxB7F54cW-bIOR9-237" target="k1esWwxB7F54cW-bIOR9-141">
          <mxGeometry relative="1" as="geometry" />
        </mxCell>
        <mxCell id="k1esWwxB7F54cW-bIOR9-237" value="" style="triangle;whiteSpace=wrap;html=1;rotation=-90;" vertex="1" parent="1">
          <mxGeometry x="345" y="660" width="20" height="30" as="geometry" />
        </mxCell>
        <mxCell id="k1esWwxB7F54cW-bIOR9-333" style="edgeStyle=orthogonalEdgeStyle;rounded=0;orthogonalLoop=1;jettySize=auto;html=1;exitX=1;exitY=0.5;exitDx=0;exitDy=0;entryX=1;entryY=0.5;entryDx=0;entryDy=0;" edge="1" parent="1" source="k1esWwxB7F54cW-bIOR9-239" target="k1esWwxB7F54cW-bIOR9-164">
          <mxGeometry relative="1" as="geometry" />
        </mxCell>
        <mxCell id="k1esWwxB7F54cW-bIOR9-239" value="" style="triangle;whiteSpace=wrap;html=1;rotation=-90;" vertex="1" parent="1">
          <mxGeometry x="395" y="660" width="20" height="30" as="geometry" />
        </mxCell>
        <mxCell id="k1esWwxB7F54cW-bIOR9-332" style="edgeStyle=orthogonalEdgeStyle;rounded=0;orthogonalLoop=1;jettySize=auto;html=1;exitX=1;exitY=0.5;exitDx=0;exitDy=0;entryX=1;entryY=0.5;entryDx=0;entryDy=0;" edge="1" parent="1" source="k1esWwxB7F54cW-bIOR9-241" target="k1esWwxB7F54cW-bIOR9-146">
          <mxGeometry relative="1" as="geometry" />
        </mxCell>
        <mxCell id="k1esWwxB7F54cW-bIOR9-241" value="" style="triangle;whiteSpace=wrap;html=1;rotation=-90;" vertex="1" parent="1">
          <mxGeometry x="445" y="660" width="20" height="30" as="geometry" />
        </mxCell>
        <mxCell id="k1esWwxB7F54cW-bIOR9-329" style="edgeStyle=orthogonalEdgeStyle;rounded=0;orthogonalLoop=1;jettySize=auto;html=1;exitX=1;exitY=0.5;exitDx=0;exitDy=0;entryX=1;entryY=0.5;entryDx=0;entryDy=0;" edge="1" parent="1" source="k1esWwxB7F54cW-bIOR9-243" target="k1esWwxB7F54cW-bIOR9-147">
          <mxGeometry relative="1" as="geometry" />
        </mxCell>
        <mxCell id="k1esWwxB7F54cW-bIOR9-243" value="" style="triangle;whiteSpace=wrap;html=1;rotation=-90;" vertex="1" parent="1">
          <mxGeometry x="495" y="660" width="20" height="30" as="geometry" />
        </mxCell>
        <mxCell id="k1esWwxB7F54cW-bIOR9-328" style="edgeStyle=orthogonalEdgeStyle;rounded=0;orthogonalLoop=1;jettySize=auto;html=1;exitX=1;exitY=0.5;exitDx=0;exitDy=0;entryX=1;entryY=0.5;entryDx=0;entryDy=0;" edge="1" parent="1" source="k1esWwxB7F54cW-bIOR9-245" target="k1esWwxB7F54cW-bIOR9-145">
          <mxGeometry relative="1" as="geometry" />
        </mxCell>
        <mxCell id="k1esWwxB7F54cW-bIOR9-245" value="" style="triangle;whiteSpace=wrap;html=1;rotation=-90;" vertex="1" parent="1">
          <mxGeometry x="545" y="660" width="20" height="30" as="geometry" />
        </mxCell>
        <mxCell id="k1esWwxB7F54cW-bIOR9-327" style="edgeStyle=orthogonalEdgeStyle;rounded=0;orthogonalLoop=1;jettySize=auto;html=1;exitX=1;exitY=0.5;exitDx=0;exitDy=0;entryX=1;entryY=0.5;entryDx=0;entryDy=0;" edge="1" parent="1" source="k1esWwxB7F54cW-bIOR9-247" target="k1esWwxB7F54cW-bIOR9-149">
          <mxGeometry relative="1" as="geometry" />
        </mxCell>
        <mxCell id="k1esWwxB7F54cW-bIOR9-247" value="" style="triangle;whiteSpace=wrap;html=1;rotation=-90;" vertex="1" parent="1">
          <mxGeometry x="595" y="660" width="20" height="30" as="geometry" />
        </mxCell>
        <mxCell id="k1esWwxB7F54cW-bIOR9-326" style="edgeStyle=orthogonalEdgeStyle;rounded=0;orthogonalLoop=1;jettySize=auto;html=1;exitX=1;exitY=0.5;exitDx=0;exitDy=0;entryX=1;entryY=0.5;entryDx=0;entryDy=0;" edge="1" parent="1" source="k1esWwxB7F54cW-bIOR9-249" target="k1esWwxB7F54cW-bIOR9-148">
          <mxGeometry relative="1" as="geometry" />
        </mxCell>
        <mxCell id="k1esWwxB7F54cW-bIOR9-249" value="" style="triangle;whiteSpace=wrap;html=1;rotation=-90;" vertex="1" parent="1">
          <mxGeometry x="645" y="660" width="20" height="30" as="geometry" />
        </mxCell>
        <mxCell id="k1esWwxB7F54cW-bIOR9-324" style="edgeStyle=orthogonalEdgeStyle;rounded=0;orthogonalLoop=1;jettySize=auto;html=1;exitX=1;exitY=0.5;exitDx=0;exitDy=0;entryX=1;entryY=0.5;entryDx=0;entryDy=0;" edge="1" parent="1" source="k1esWwxB7F54cW-bIOR9-251" target="k1esWwxB7F54cW-bIOR9-153">
          <mxGeometry relative="1" as="geometry" />
        </mxCell>
        <mxCell id="k1esWwxB7F54cW-bIOR9-251" value="" style="triangle;whiteSpace=wrap;html=1;rotation=-90;" vertex="1" parent="1">
          <mxGeometry x="745" y="660" width="20" height="30" as="geometry" />
        </mxCell>
        <mxCell id="k1esWwxB7F54cW-bIOR9-323" style="edgeStyle=orthogonalEdgeStyle;rounded=0;orthogonalLoop=1;jettySize=auto;html=1;exitX=1;exitY=0.5;exitDx=0;exitDy=0;entryX=1;entryY=0.5;entryDx=0;entryDy=0;" edge="1" parent="1" source="k1esWwxB7F54cW-bIOR9-253" target="k1esWwxB7F54cW-bIOR9-152">
          <mxGeometry relative="1" as="geometry" />
        </mxCell>
        <mxCell id="k1esWwxB7F54cW-bIOR9-253" value="" style="triangle;whiteSpace=wrap;html=1;rotation=-90;" vertex="1" parent="1">
          <mxGeometry x="795" y="660" width="20" height="30" as="geometry" />
        </mxCell>
        <mxCell id="k1esWwxB7F54cW-bIOR9-322" style="edgeStyle=orthogonalEdgeStyle;rounded=0;orthogonalLoop=1;jettySize=auto;html=1;exitX=1;exitY=0.5;exitDx=0;exitDy=0;entryX=1;entryY=0.5;entryDx=0;entryDy=0;" edge="1" parent="1" source="k1esWwxB7F54cW-bIOR9-255" target="k1esWwxB7F54cW-bIOR9-151">
          <mxGeometry relative="1" as="geometry" />
        </mxCell>
        <mxCell id="k1esWwxB7F54cW-bIOR9-255" value="" style="triangle;whiteSpace=wrap;html=1;rotation=-90;" vertex="1" parent="1">
          <mxGeometry x="845" y="660" width="20" height="30" as="geometry" />
        </mxCell>
        <mxCell id="k1esWwxB7F54cW-bIOR9-325" style="edgeStyle=orthogonalEdgeStyle;rounded=0;orthogonalLoop=1;jettySize=auto;html=1;exitX=1;exitY=0.5;exitDx=0;exitDy=0;entryX=1;entryY=0.5;entryDx=0;entryDy=0;" edge="1" parent="1" source="k1esWwxB7F54cW-bIOR9-257" target="k1esWwxB7F54cW-bIOR9-150">
          <mxGeometry relative="1" as="geometry" />
        </mxCell>
        <mxCell id="k1esWwxB7F54cW-bIOR9-257" value="" style="triangle;whiteSpace=wrap;html=1;rotation=-90;" vertex="1" parent="1">
          <mxGeometry x="695" y="660" width="20" height="30" as="geometry" />
        </mxCell>
        <mxCell id="k1esWwxB7F54cW-bIOR9-319" style="edgeStyle=orthogonalEdgeStyle;rounded=0;orthogonalLoop=1;jettySize=auto;html=1;exitX=1;exitY=0.5;exitDx=0;exitDy=0;entryX=1;entryY=0.5;entryDx=0;entryDy=0;" edge="1" parent="1" source="k1esWwxB7F54cW-bIOR9-259" target="k1esWwxB7F54cW-bIOR9-163">
          <mxGeometry relative="1" as="geometry" />
        </mxCell>
        <mxCell id="k1esWwxB7F54cW-bIOR9-259" value="" style="triangle;whiteSpace=wrap;html=1;rotation=-90;" vertex="1" parent="1">
          <mxGeometry x="995" y="660" width="20" height="30" as="geometry" />
        </mxCell>
        <mxCell id="k1esWwxB7F54cW-bIOR9-320" style="edgeStyle=orthogonalEdgeStyle;rounded=0;orthogonalLoop=1;jettySize=auto;html=1;exitX=1;exitY=0.5;exitDx=0;exitDy=0;entryX=1;entryY=0.5;entryDx=0;entryDy=0;" edge="1" parent="1" source="k1esWwxB7F54cW-bIOR9-261" target="k1esWwxB7F54cW-bIOR9-154">
          <mxGeometry relative="1" as="geometry" />
        </mxCell>
        <mxCell id="k1esWwxB7F54cW-bIOR9-261" value="" style="triangle;whiteSpace=wrap;html=1;rotation=-90;" vertex="1" parent="1">
          <mxGeometry x="945" y="660" width="20" height="30" as="geometry" />
        </mxCell>
        <mxCell id="k1esWwxB7F54cW-bIOR9-321" style="edgeStyle=orthogonalEdgeStyle;rounded=0;orthogonalLoop=1;jettySize=auto;html=1;exitX=1;exitY=0.5;exitDx=0;exitDy=0;entryX=1;entryY=0.5;entryDx=0;entryDy=0;" edge="1" parent="1" source="k1esWwxB7F54cW-bIOR9-263" target="k1esWwxB7F54cW-bIOR9-155">
          <mxGeometry relative="1" as="geometry" />
        </mxCell>
        <mxCell id="k1esWwxB7F54cW-bIOR9-263" value="" style="triangle;whiteSpace=wrap;html=1;rotation=-90;" vertex="1" parent="1">
          <mxGeometry x="895" y="660" width="20" height="30" as="geometry" />
        </mxCell>
        <mxCell id="k1esWwxB7F54cW-bIOR9-316" style="edgeStyle=orthogonalEdgeStyle;rounded=0;orthogonalLoop=1;jettySize=auto;html=1;exitX=1;exitY=0.5;exitDx=0;exitDy=0;entryX=1;entryY=0.5;entryDx=0;entryDy=0;" edge="1" parent="1" source="k1esWwxB7F54cW-bIOR9-265" target="k1esWwxB7F54cW-bIOR9-160">
          <mxGeometry relative="1" as="geometry" />
        </mxCell>
        <mxCell id="k1esWwxB7F54cW-bIOR9-265" value="" style="triangle;whiteSpace=wrap;html=1;rotation=-90;" vertex="1" parent="1">
          <mxGeometry x="1145" y="660" width="20" height="30" as="geometry" />
        </mxCell>
        <mxCell id="k1esWwxB7F54cW-bIOR9-317" style="edgeStyle=orthogonalEdgeStyle;rounded=0;orthogonalLoop=1;jettySize=auto;html=1;exitX=1;exitY=0.5;exitDx=0;exitDy=0;entryX=1;entryY=0.5;entryDx=0;entryDy=0;" edge="1" parent="1" source="k1esWwxB7F54cW-bIOR9-267" target="k1esWwxB7F54cW-bIOR9-161">
          <mxGeometry relative="1" as="geometry" />
        </mxCell>
        <mxCell id="k1esWwxB7F54cW-bIOR9-267" value="" style="triangle;whiteSpace=wrap;html=1;rotation=-90;" vertex="1" parent="1">
          <mxGeometry x="1095" y="660" width="20" height="30" as="geometry" />
        </mxCell>
        <mxCell id="k1esWwxB7F54cW-bIOR9-318" style="edgeStyle=orthogonalEdgeStyle;rounded=0;orthogonalLoop=1;jettySize=auto;html=1;exitX=1;exitY=0.5;exitDx=0;exitDy=0;entryX=1;entryY=0.5;entryDx=0;entryDy=0;" edge="1" parent="1" source="k1esWwxB7F54cW-bIOR9-269" target="k1esWwxB7F54cW-bIOR9-162">
          <mxGeometry relative="1" as="geometry" />
        </mxCell>
        <mxCell id="k1esWwxB7F54cW-bIOR9-269" value="" style="triangle;whiteSpace=wrap;html=1;rotation=-90;" vertex="1" parent="1">
          <mxGeometry x="1045" y="660" width="20" height="30" as="geometry" />
        </mxCell>
        <mxCell id="k1esWwxB7F54cW-bIOR9-315" style="edgeStyle=orthogonalEdgeStyle;rounded=0;orthogonalLoop=1;jettySize=auto;html=1;exitX=1;exitY=0.5;exitDx=0;exitDy=0;entryX=1;entryY=0.5;entryDx=0;entryDy=0;" edge="1" parent="1" source="k1esWwxB7F54cW-bIOR9-271" target="k1esWwxB7F54cW-bIOR9-156">
          <mxGeometry relative="1" as="geometry" />
        </mxCell>
        <mxCell id="k1esWwxB7F54cW-bIOR9-271" value="" style="triangle;whiteSpace=wrap;html=1;rotation=-90;" vertex="1" parent="1">
          <mxGeometry x="1195" y="660" width="20" height="30" as="geometry" />
        </mxCell>
        <mxCell id="k1esWwxB7F54cW-bIOR9-313" style="edgeStyle=orthogonalEdgeStyle;rounded=0;orthogonalLoop=1;jettySize=auto;html=1;exitX=1;exitY=0.5;exitDx=0;exitDy=0;entryX=1;entryY=0.5;entryDx=0;entryDy=0;" edge="1" parent="1" source="k1esWwxB7F54cW-bIOR9-273" target="k1esWwxB7F54cW-bIOR9-158">
          <mxGeometry relative="1" as="geometry" />
        </mxCell>
        <mxCell id="k1esWwxB7F54cW-bIOR9-273" value="" style="triangle;whiteSpace=wrap;html=1;rotation=-90;" vertex="1" parent="1">
          <mxGeometry x="1245" y="660" width="20" height="30" as="geometry" />
        </mxCell>
        <mxCell id="k1esWwxB7F54cW-bIOR9-274" style="edgeStyle=orthogonalEdgeStyle;rounded=0;orthogonalLoop=1;jettySize=auto;html=1;exitX=0.5;exitY=1;exitDx=0;exitDy=0;entryX=0;entryY=0.5;entryDx=0;entryDy=0;" edge="1" parent="1" source="k1esWwxB7F54cW-bIOR9-275" target="k1esWwxB7F54cW-bIOR9-278">
          <mxGeometry relative="1" as="geometry" />
        </mxCell>
        <mxCell id="k1esWwxB7F54cW-bIOR9-275" value="c_in[27]" style="text;html=1;align=center;verticalAlign=middle;whiteSpace=wrap;rounded=0;" vertex="1" parent="1">
          <mxGeometry x="-60" y="20" width="50" height="20" as="geometry" />
        </mxCell>
        <mxCell id="k1esWwxB7F54cW-bIOR9-276" value="" style="triangle;whiteSpace=wrap;html=1;rotation=90;" vertex="1" parent="1">
          <mxGeometry x="-45" y="50" width="20" height="30" as="geometry" />
        </mxCell>
        <mxCell id="k1esWwxB7F54cW-bIOR9-310" style="edgeStyle=orthogonalEdgeStyle;rounded=0;orthogonalLoop=1;jettySize=auto;html=1;exitX=1;exitY=0.5;exitDx=0;exitDy=0;entryX=0;entryY=0.5;entryDx=0;entryDy=0;" edge="1" parent="1" source="k1esWwxB7F54cW-bIOR9-278" target="k1esWwxB7F54cW-bIOR9-75">
          <mxGeometry relative="1" as="geometry">
            <Array as="points">
              <mxPoint x="-35" y="90" />
              <mxPoint x="1340" y="90" />
              <mxPoint x="1340" y="625" />
            </Array>
          </mxGeometry>
        </mxCell>
        <mxCell id="k1esWwxB7F54cW-bIOR9-278" value="" style="triangle;whiteSpace=wrap;html=1;rotation=90;" vertex="1" parent="1">
          <mxGeometry x="-45" y="50" width="20" height="30" as="geometry" />
        </mxCell>
        <mxCell id="k1esWwxB7F54cW-bIOR9-279" style="edgeStyle=orthogonalEdgeStyle;rounded=0;orthogonalLoop=1;jettySize=auto;html=1;exitX=0.5;exitY=0;exitDx=0;exitDy=0;entryX=0;entryY=0.5;entryDx=0;entryDy=0;" edge="1" parent="1" source="k1esWwxB7F54cW-bIOR9-280" target="k1esWwxB7F54cW-bIOR9-282">
          <mxGeometry relative="1" as="geometry" />
        </mxCell>
        <mxCell id="k1esWwxB7F54cW-bIOR9-280" value="d_in[27]" style="text;html=1;align=center;verticalAlign=middle;whiteSpace=wrap;rounded=0;" vertex="1" parent="1">
          <mxGeometry x="-120" y="700" width="50" height="20" as="geometry" />
        </mxCell>
        <mxCell id="k1esWwxB7F54cW-bIOR9-312" style="edgeStyle=orthogonalEdgeStyle;rounded=0;orthogonalLoop=1;jettySize=auto;html=1;exitX=1;exitY=0.5;exitDx=0;exitDy=0;entryX=1;entryY=0.5;entryDx=0;entryDy=0;" edge="1" parent="1" source="k1esWwxB7F54cW-bIOR9-282" target="k1esWwxB7F54cW-bIOR9-157">
          <mxGeometry relative="1" as="geometry">
            <Array as="points">
              <mxPoint x="-95" y="625" />
            </Array>
          </mxGeometry>
        </mxCell>
        <mxCell id="k1esWwxB7F54cW-bIOR9-282" value="" style="triangle;whiteSpace=wrap;html=1;rotation=-90;" vertex="1" parent="1">
          <mxGeometry x="-105" y="660" width="20" height="30" as="geometry" />
        </mxCell>
      </root>
    </mxGraphModel>
  </diagram>
</mxfile>
